<svg width="550" height="150" viewBox="0 0 550 150" fill="none" xmlns="http://www.w3.org/2000/svg">
	<rect width="550" height="150" rx="10" fill="white" />
	<path d="M207.27 99.18C206.46 99.18 205.705 99.05 205.005 98.79C204.315 98.52 203.715 98.14 203.205 97.65C202.695 97.16 202.295 96.585 202.005 95.925C201.725 95.265 201.585 94.54 201.585 93.75C201.585 92.96 201.725 92.235 202.005 91.575C202.295 90.915 202.695 90.34 203.205 89.85C203.725 89.36 204.33 88.985 205.02 88.725C205.71 88.455 206.465 88.32 207.285 88.32C208.195 88.32 209.015 88.48 209.745 88.8C210.485 89.11 211.105 89.57 211.605 90.18L210.045 91.62C209.685 91.21 209.285 90.905 208.845 90.705C208.405 90.495 207.925 90.39 207.405 90.39C206.915 90.39 206.465 90.47 206.055 90.63C205.645 90.79 205.29 91.02 204.99 91.32C204.69 91.62 204.455 91.975 204.285 92.385C204.125 92.795 204.045 93.25 204.045 93.75C204.045 94.25 204.125 94.705 204.285 95.115C204.455 95.525 204.69 95.88 204.99 96.18C205.29 96.48 205.645 96.71 206.055 96.87C206.465 97.03 206.915 97.11 207.405 97.11C207.925 97.11 208.405 97.01 208.845 96.81C209.285 96.6 209.685 96.285 210.045 95.865L211.605 97.305C211.105 97.915 210.485 98.38 209.745 98.7C209.015 99.02 208.19 99.18 207.27 99.18ZM216.643 99.12C215.783 99.12 215.018 98.94 214.348 98.58C213.688 98.22 213.163 97.73 212.773 97.11C212.393 96.48 212.203 95.765 212.203 94.965C212.203 94.155 212.393 93.44 212.773 92.82C213.163 92.19 213.688 91.7 214.348 91.35C215.018 90.99 215.783 90.81 216.643 90.81C217.493 90.81 218.253 90.99 218.923 91.35C219.593 91.7 220.118 92.185 220.498 92.805C220.878 93.425 221.068 94.145 221.068 94.965C221.068 95.765 220.878 96.48 220.498 97.11C220.118 97.73 219.593 98.22 218.923 98.58C218.253 98.94 217.493 99.12 216.643 99.12ZM216.643 97.2C217.033 97.2 217.383 97.11 217.693 96.93C218.003 96.75 218.248 96.495 218.428 96.165C218.608 95.825 218.698 95.425 218.698 94.965C218.698 94.495 218.608 94.095 218.428 93.765C218.248 93.435 218.003 93.18 217.693 93C217.383 92.82 217.033 92.73 216.643 92.73C216.253 92.73 215.903 92.82 215.593 93C215.283 93.18 215.033 93.435 214.843 93.765C214.663 94.095 214.573 94.495 214.573 94.965C214.573 95.425 214.663 95.825 214.843 96.165C215.033 96.495 215.283 96.75 215.593 96.93C215.903 97.11 216.253 97.2 216.643 97.2ZM232.967 90.81C233.607 90.81 234.172 90.94 234.662 91.2C235.162 91.45 235.552 91.84 235.832 92.37C236.122 92.89 236.267 93.56 236.267 94.38V99H233.927V94.74C233.927 94.09 233.792 93.61 233.522 93.3C233.252 92.99 232.872 92.835 232.382 92.835C232.042 92.835 231.737 92.915 231.467 93.075C231.197 93.225 230.987 93.455 230.837 93.765C230.687 94.075 230.612 94.47 230.612 94.95V99H228.272V94.74C228.272 94.09 228.137 93.61 227.867 93.3C227.607 92.99 227.232 92.835 226.742 92.835C226.402 92.835 226.097 92.915 225.827 93.075C225.557 93.225 225.347 93.455 225.197 93.765C225.047 94.075 224.972 94.47 224.972 94.95V99H222.632V90.93H224.867V93.135L224.447 92.49C224.727 91.94 225.122 91.525 225.632 91.245C226.152 90.955 226.742 90.81 227.402 90.81C228.142 90.81 228.787 91 229.337 91.38C229.897 91.75 230.267 92.32 230.447 93.09L229.622 92.865C229.892 92.235 230.322 91.735 230.912 91.365C231.512 90.995 232.197 90.81 232.967 90.81ZM243.134 99.12C242.454 99.12 241.859 98.97 241.349 98.67C240.839 98.37 240.439 97.915 240.149 97.305C239.869 96.685 239.729 95.905 239.729 94.965C239.729 94.015 239.864 93.235 240.134 92.625C240.404 92.015 240.794 91.56 241.304 91.26C241.814 90.96 242.424 90.81 243.134 90.81C243.894 90.81 244.574 90.985 245.174 91.335C245.784 91.675 246.264 92.155 246.614 92.775C246.974 93.395 247.154 94.125 247.154 94.965C247.154 95.815 246.974 96.55 246.614 97.17C246.264 97.79 245.784 98.27 245.174 98.61C244.574 98.95 243.894 99.12 243.134 99.12ZM238.364 101.91V90.93H240.599V92.58L240.554 94.98L240.704 97.365V101.91H238.364ZM242.729 97.2C243.119 97.2 243.464 97.11 243.764 96.93C244.074 96.75 244.319 96.495 244.499 96.165C244.689 95.825 244.784 95.425 244.784 94.965C244.784 94.495 244.689 94.095 244.499 93.765C244.319 93.435 244.074 93.18 243.764 93C243.464 92.82 243.119 92.73 242.729 92.73C242.339 92.73 241.989 92.82 241.679 93C241.369 93.18 241.124 93.435 240.944 93.765C240.764 94.095 240.674 94.495 240.674 94.965C240.674 95.425 240.764 95.825 240.944 96.165C241.124 96.495 241.369 96.75 241.679 96.93C241.989 97.11 242.339 97.2 242.729 97.2ZM252.561 99.12C251.701 99.12 250.936 98.94 250.266 98.58C249.606 98.22 249.081 97.73 248.691 97.11C248.311 96.48 248.121 95.765 248.121 94.965C248.121 94.155 248.311 93.44 248.691 92.82C249.081 92.19 249.606 91.7 250.266 91.35C250.936 90.99 251.701 90.81 252.561 90.81C253.411 90.81 254.171 90.99 254.841 91.35C255.511 91.7 256.036 92.185 256.416 92.805C256.796 93.425 256.986 94.145 256.986 94.965C256.986 95.765 256.796 96.48 256.416 97.11C256.036 97.73 255.511 98.22 254.841 98.58C254.171 98.94 253.411 99.12 252.561 99.12ZM252.561 97.2C252.951 97.2 253.301 97.11 253.611 96.93C253.921 96.75 254.166 96.495 254.346 96.165C254.526 95.825 254.616 95.425 254.616 94.965C254.616 94.495 254.526 94.095 254.346 93.765C254.166 93.435 253.921 93.18 253.611 93C253.301 92.82 252.951 92.73 252.561 92.73C252.171 92.73 251.821 92.82 251.511 93C251.201 93.18 250.951 93.435 250.761 93.765C250.581 94.095 250.491 94.495 250.491 94.965C250.491 95.425 250.581 95.825 250.761 96.165C250.951 96.495 251.201 96.75 251.511 96.93C251.821 97.11 252.171 97.2 252.561 97.2ZM263.455 90.81C264.095 90.81 264.665 90.94 265.165 91.2C265.675 91.45 266.075 91.84 266.365 92.37C266.655 92.89 266.8 93.56 266.8 94.38V99H264.46V94.74C264.46 94.09 264.315 93.61 264.025 93.3C263.745 92.99 263.345 92.835 262.825 92.835C262.455 92.835 262.12 92.915 261.82 93.075C261.53 93.225 261.3 93.46 261.13 93.78C260.97 94.1 260.89 94.51 260.89 95.01V99H258.55V90.93H260.785V93.165L260.365 92.49C260.655 91.95 261.07 91.535 261.61 91.245C262.15 90.955 262.765 90.81 263.455 90.81ZM272.984 99.12C272.064 99.12 271.254 98.94 270.554 98.58C269.864 98.22 269.329 97.73 268.949 97.11C268.569 96.48 268.379 95.765 268.379 94.965C268.379 94.155 268.564 93.44 268.934 92.82C269.314 92.19 269.829 91.7 270.479 91.35C271.129 90.99 271.864 90.81 272.684 90.81C273.474 90.81 274.184 90.98 274.814 91.32C275.454 91.65 275.959 92.13 276.329 92.76C276.699 93.38 276.884 94.125 276.884 94.995C276.884 95.085 276.879 95.19 276.869 95.31C276.859 95.42 276.849 95.525 276.839 95.625H270.284V94.26H275.609L274.709 94.665C274.709 94.245 274.624 93.88 274.454 93.57C274.284 93.26 274.049 93.02 273.749 92.85C273.449 92.67 273.099 92.58 272.699 92.58C272.299 92.58 271.944 92.67 271.634 92.85C271.334 93.02 271.099 93.265 270.929 93.585C270.759 93.895 270.674 94.265 270.674 94.695V95.055C270.674 95.495 270.769 95.885 270.959 96.225C271.159 96.555 271.434 96.81 271.784 96.99C272.144 97.16 272.564 97.245 273.044 97.245C273.474 97.245 273.849 97.18 274.169 97.05C274.499 96.92 274.799 96.725 275.069 96.465L276.314 97.815C275.944 98.235 275.479 98.56 274.919 98.79C274.359 99.01 273.714 99.12 272.984 99.12ZM283.347 90.81C283.987 90.81 284.557 90.94 285.057 91.2C285.567 91.45 285.967 91.84 286.257 92.37C286.547 92.89 286.692 93.56 286.692 94.38V99H284.352V94.74C284.352 94.09 284.207 93.61 283.917 93.3C283.637 92.99 283.237 92.835 282.717 92.835C282.347 92.835 282.012 92.915 281.712 93.075C281.422 93.225 281.192 93.46 281.022 93.78C280.862 94.1 280.782 94.51 280.782 95.01V99H278.442V90.93H280.677V93.165L280.257 92.49C280.547 91.95 280.962 91.535 281.502 91.245C282.042 90.955 282.657 90.81 283.347 90.81ZM292.113 99.12C291.163 99.12 290.423 98.88 289.893 98.4C289.363 97.91 289.098 97.185 289.098 96.225V89.145H291.438V96.195C291.438 96.535 291.528 96.8 291.708 96.99C291.888 97.17 292.133 97.26 292.443 97.26C292.813 97.26 293.128 97.16 293.388 96.96L294.018 98.61C293.778 98.78 293.488 98.91 293.148 99C292.818 99.08 292.473 99.12 292.113 99.12ZM287.853 92.91V91.11H293.448V92.91H287.853ZM298.047 99.12C297.357 99.12 296.692 99.04 296.052 98.88C295.422 98.71 294.922 98.5 294.552 98.25L295.332 96.57C295.702 96.8 296.137 96.99 296.637 97.14C297.147 97.28 297.647 97.35 298.137 97.35C298.677 97.35 299.057 97.285 299.277 97.155C299.507 97.025 299.622 96.845 299.622 96.615C299.622 96.425 299.532 96.285 299.352 96.195C299.182 96.095 298.952 96.02 298.662 95.97C298.372 95.92 298.052 95.87 297.702 95.82C297.362 95.77 297.017 95.705 296.667 95.625C296.317 95.535 295.997 95.405 295.707 95.235C295.417 95.065 295.182 94.835 295.002 94.545C294.832 94.255 294.747 93.88 294.747 93.42C294.747 92.91 294.892 92.46 295.182 92.07C295.482 91.68 295.912 91.375 296.472 91.155C297.032 90.925 297.702 90.81 298.482 90.81C299.032 90.81 299.592 90.87 300.162 90.99C300.732 91.11 301.207 91.285 301.587 91.515L300.807 93.18C300.417 92.95 300.022 92.795 299.622 92.715C299.232 92.625 298.852 92.58 298.482 92.58C297.962 92.58 297.582 92.65 297.342 92.79C297.102 92.93 296.982 93.11 296.982 93.33C296.982 93.53 297.067 93.68 297.237 93.78C297.417 93.88 297.652 93.96 297.942 94.02C298.232 94.08 298.547 94.135 298.887 94.185C299.237 94.225 299.587 94.29 299.937 94.38C300.287 94.47 300.602 94.6 300.882 94.77C301.172 94.93 301.407 95.155 301.587 95.445C301.767 95.725 301.857 96.095 301.857 96.555C301.857 97.055 301.707 97.5 301.407 97.89C301.107 98.27 300.672 98.57 300.102 98.79C299.542 99.01 298.857 99.12 298.047 99.12ZM307.834 99V90.75C307.834 89.84 308.104 89.115 308.644 88.575C309.184 88.025 309.954 87.75 310.954 87.75C311.294 87.75 311.619 87.785 311.929 87.855C312.249 87.925 312.519 88.035 312.739 88.185L312.124 89.88C311.994 89.79 311.849 89.72 311.689 89.67C311.529 89.62 311.359 89.595 311.179 89.595C310.839 89.595 310.574 89.695 310.384 89.895C310.204 90.085 310.114 90.375 310.114 90.765V91.515L310.174 92.52V99H307.834ZM306.589 92.91V91.11H312.184V92.91H306.589ZM317.087 99.12C316.227 99.12 315.462 98.94 314.792 98.58C314.132 98.22 313.607 97.73 313.217 97.11C312.837 96.48 312.647 95.765 312.647 94.965C312.647 94.155 312.837 93.44 313.217 92.82C313.607 92.19 314.132 91.7 314.792 91.35C315.462 90.99 316.227 90.81 317.087 90.81C317.937 90.81 318.697 90.99 319.367 91.35C320.037 91.7 320.562 92.185 320.942 92.805C321.322 93.425 321.512 94.145 321.512 94.965C321.512 95.765 321.322 96.48 320.942 97.11C320.562 97.73 320.037 98.22 319.367 98.58C318.697 98.94 317.937 99.12 317.087 99.12ZM317.087 97.2C317.477 97.2 317.827 97.11 318.137 96.93C318.447 96.75 318.692 96.495 318.872 96.165C319.052 95.825 319.142 95.425 319.142 94.965C319.142 94.495 319.052 94.095 318.872 93.765C318.692 93.435 318.447 93.18 318.137 93C317.827 92.82 317.477 92.73 317.087 92.73C316.697 92.73 316.347 92.82 316.037 93C315.727 93.18 315.477 93.435 315.287 93.765C315.107 94.095 315.017 94.495 315.017 94.965C315.017 95.425 315.107 95.825 315.287 96.165C315.477 96.495 315.727 96.75 316.037 96.93C316.347 97.11 316.697 97.2 317.087 97.2ZM323.076 99V90.93H325.311V93.21L324.996 92.55C325.236 91.98 325.621 91.55 326.151 91.26C326.681 90.96 327.326 90.81 328.086 90.81V92.97C327.986 92.96 327.896 92.955 327.816 92.955C327.736 92.945 327.651 92.94 327.561 92.94C326.921 92.94 326.401 93.125 326.001 93.495C325.611 93.855 325.416 94.42 325.416 95.19V99H323.076ZM332.569 99L337.249 88.5H339.649L344.344 99H341.794L337.954 89.73H338.914L335.059 99H332.569ZM334.909 96.75L335.554 94.905H340.954L341.614 96.75H334.909ZM345.433 99V88.5H347.863V99H345.433Z" fill="black" />
	<g clip-path="url(#clip0_2_5)">
		<path d="M207 59H209C209.53 59 210.039 59.2107 210.414 59.5858C210.789 59.9609 211 60.4696 211 61V72L207 68H201C200.47 68 199.961 67.7893 199.586 67.4142C199.211 67.0391 199 66.5304 199 66V65M203 59C203 59.5304 202.789 60.0391 202.414 60.4142C202.039 60.7893 201.53 61 201 61H195L191 65V54C191 52.9 191.9 52 193 52H201C201.53 52 202.039 52.2107 202.414 52.5858C202.789 52.9609 203 53.4696 203 54V59Z" stroke="black" stroke-width="3" stroke-linecap="round" stroke-linejoin="round" />
	</g>
	<path d="M236.844 70V67.69L236.624 67.184V63.048C236.624 62.3147 236.397 61.7427 235.942 61.332C235.502 60.9213 234.82 60.716 233.896 60.716C233.265 60.716 232.642 60.8187 232.026 61.024C231.425 61.2147 230.911 61.4787 230.486 61.816L229.254 59.418C229.899 58.9633 230.677 58.6113 231.586 58.362C232.495 58.1127 233.419 57.988 234.358 57.988C236.162 57.988 237.563 58.4133 238.56 59.264C239.557 60.1147 240.056 61.442 240.056 63.246V70H236.844ZM233.236 70.176C232.312 70.176 231.52 70.022 230.86 69.714C230.2 69.3913 229.694 68.9587 229.342 68.416C228.99 67.8733 228.814 67.2647 228.814 66.59C228.814 65.886 228.983 65.27 229.32 64.742C229.672 64.214 230.222 63.8033 230.97 63.51C231.718 63.202 232.693 63.048 233.896 63.048H237.042V65.05H234.27C233.463 65.05 232.906 65.182 232.598 65.446C232.305 65.71 232.158 66.04 232.158 66.436C232.158 66.876 232.327 67.228 232.664 67.492C233.016 67.7413 233.493 67.866 234.094 67.866C234.666 67.866 235.179 67.734 235.634 67.47C236.089 67.1913 236.419 66.788 236.624 66.26L237.152 67.844C236.903 68.6067 236.448 69.186 235.788 69.582C235.128 69.978 234.277 70.176 233.236 70.176ZM247.144 70.176C246.132 70.176 245.157 70.0587 244.218 69.824C243.294 69.5747 242.561 69.2667 242.018 68.9L243.162 66.436C243.705 66.7733 244.343 67.052 245.076 67.272C245.824 67.4773 246.557 67.58 247.276 67.58C248.068 67.58 248.625 67.4847 248.948 67.294C249.285 67.1033 249.454 66.8393 249.454 66.502C249.454 66.2233 249.322 66.018 249.058 65.886C248.809 65.7393 248.471 65.6293 248.046 65.556C247.621 65.4827 247.151 65.4093 246.638 65.336C246.139 65.2627 245.633 65.1673 245.12 65.05C244.607 64.918 244.137 64.7273 243.712 64.478C243.287 64.2287 242.942 63.8913 242.678 63.466C242.429 63.0407 242.304 62.4907 242.304 61.816C242.304 61.068 242.517 60.408 242.942 59.836C243.382 59.264 244.013 58.8167 244.834 58.494C245.655 58.1567 246.638 57.988 247.782 57.988C248.589 57.988 249.41 58.076 250.246 58.252C251.082 58.428 251.779 58.6847 252.336 59.022L251.192 61.464C250.62 61.1267 250.041 60.8993 249.454 60.782C248.882 60.65 248.325 60.584 247.782 60.584C247.019 60.584 246.462 60.6867 246.11 60.892C245.758 61.0973 245.582 61.3613 245.582 61.684C245.582 61.9773 245.707 62.1973 245.956 62.344C246.22 62.4907 246.565 62.608 246.99 62.696C247.415 62.784 247.877 62.8647 248.376 62.938C248.889 62.9967 249.403 63.092 249.916 63.224C250.429 63.356 250.891 63.5467 251.302 63.796C251.727 64.0307 252.072 64.3607 252.336 64.786C252.6 65.1967 252.732 65.7393 252.732 66.414C252.732 67.1473 252.512 67.8 252.072 68.372C251.632 68.9293 250.994 69.3693 250.158 69.692C249.337 70.0147 248.332 70.176 247.144 70.176ZM258.832 70.176C257.82 70.176 256.844 70.0587 255.906 69.824C254.982 69.5747 254.248 69.2667 253.706 68.9L254.85 66.436C255.392 66.7733 256.03 67.052 256.764 67.272C257.512 67.4773 258.245 67.58 258.964 67.58C259.756 67.58 260.313 67.4847 260.636 67.294C260.973 67.1033 261.142 66.8393 261.142 66.502C261.142 66.2233 261.01 66.018 260.746 65.886C260.496 65.7393 260.159 65.6293 259.734 65.556C259.308 65.4827 258.839 65.4093 258.326 65.336C257.827 65.2627 257.321 65.1673 256.808 65.05C256.294 64.918 255.825 64.7273 255.4 64.478C254.974 64.2287 254.63 63.8913 254.366 63.466C254.116 63.0407 253.992 62.4907 253.992 61.816C253.992 61.068 254.204 60.408 254.63 59.836C255.07 59.264 255.7 58.8167 256.522 58.494C257.343 58.1567 258.326 57.988 259.47 57.988C260.276 57.988 261.098 58.076 261.934 58.252C262.77 58.428 263.466 58.6847 264.024 59.022L262.88 61.464C262.308 61.1267 261.728 60.8993 261.142 60.782C260.57 60.65 260.012 60.584 259.47 60.584C258.707 60.584 258.15 60.6867 257.798 60.892C257.446 61.0973 257.27 61.3613 257.27 61.684C257.27 61.9773 257.394 62.1973 257.644 62.344C257.908 62.4907 258.252 62.608 258.678 62.696C259.103 62.784 259.565 62.8647 260.064 62.938C260.577 62.9967 261.09 63.092 261.604 63.224C262.117 63.356 262.579 63.5467 262.99 63.796C263.415 64.0307 263.76 64.3607 264.024 64.786C264.288 65.1967 264.42 65.7393 264.42 66.414C264.42 67.1473 264.2 67.8 263.76 68.372C263.32 68.9293 262.682 69.3693 261.846 69.692C261.024 70.0147 260.02 70.176 258.832 70.176ZM266.537 70V58.164H269.969V70H266.537ZM268.253 56.514C267.622 56.514 267.109 56.3307 266.713 55.964C266.317 55.5973 266.119 55.1427 266.119 54.6C266.119 54.0573 266.317 53.6027 266.713 53.236C267.109 52.8693 267.622 52.686 268.253 52.686C268.884 52.686 269.397 52.862 269.793 53.214C270.189 53.5513 270.387 53.9913 270.387 54.534C270.387 55.106 270.189 55.5827 269.793 55.964C269.412 56.3307 268.898 56.514 268.253 56.514ZM277.136 70.176C276.124 70.176 275.149 70.0587 274.21 69.824C273.286 69.5747 272.553 69.2667 272.01 68.9L273.154 66.436C273.697 66.7733 274.335 67.052 275.068 67.272C275.816 67.4773 276.55 67.58 277.268 67.58C278.06 67.58 278.618 67.4847 278.94 67.294C279.278 67.1033 279.446 66.8393 279.446 66.502C279.446 66.2233 279.314 66.018 279.05 65.886C278.801 65.7393 278.464 65.6293 278.038 65.556C277.613 65.4827 277.144 65.4093 276.63 65.336C276.132 65.2627 275.626 65.1673 275.112 65.05C274.599 64.918 274.13 64.7273 273.704 64.478C273.279 64.2287 272.934 63.8913 272.67 63.466C272.421 63.0407 272.296 62.4907 272.296 61.816C272.296 61.068 272.509 60.408 272.934 59.836C273.374 59.264 274.005 58.8167 274.826 58.494C275.648 58.1567 276.63 57.988 277.774 57.988C278.581 57.988 279.402 58.076 280.238 58.252C281.074 58.428 281.771 58.6847 282.328 59.022L281.184 61.464C280.612 61.1267 280.033 60.8993 279.446 60.782C278.874 60.65 278.317 60.584 277.774 60.584C277.012 60.584 276.454 60.6867 276.102 60.892C275.75 61.0973 275.574 61.3613 275.574 61.684C275.574 61.9773 275.699 62.1973 275.948 62.344C276.212 62.4907 276.557 62.608 276.982 62.696C277.408 62.784 277.87 62.8647 278.368 62.938C278.882 62.9967 279.395 63.092 279.908 63.224C280.422 63.356 280.884 63.5467 281.294 63.796C281.72 64.0307 282.064 64.3607 282.328 64.786C282.592 65.1967 282.724 65.7393 282.724 66.414C282.724 67.1473 282.504 67.8 282.064 68.372C281.624 68.9293 280.986 69.3693 280.15 69.692C279.329 70.0147 278.324 70.176 277.136 70.176ZM289.682 70.176C288.288 70.176 287.203 69.824 286.426 69.12C285.648 68.4013 285.26 67.338 285.26 65.93V55.546H288.692V65.886C288.692 66.3847 288.824 66.7733 289.088 67.052C289.352 67.316 289.711 67.448 290.166 67.448C290.708 67.448 291.17 67.3013 291.552 67.008L292.476 69.428C292.124 69.6773 291.698 69.868 291.2 70C290.716 70.1173 290.21 70.176 289.682 70.176ZM283.434 61.068V58.428H291.64V61.068H283.434ZM301.662 70V67.69L301.442 67.184V63.048C301.442 62.3147 301.215 61.7427 300.76 61.332C300.32 60.9213 299.638 60.716 298.714 60.716C298.084 60.716 297.46 60.8187 296.844 61.024C296.243 61.2147 295.73 61.4787 295.304 61.816L294.072 59.418C294.718 58.9633 295.495 58.6113 296.404 58.362C297.314 58.1127 298.238 57.988 299.176 57.988C300.98 57.988 302.381 58.4133 303.378 59.264C304.376 60.1147 304.874 61.442 304.874 63.246V70H301.662ZM298.054 70.176C297.13 70.176 296.338 70.022 295.678 69.714C295.018 69.3913 294.512 68.9587 294.16 68.416C293.808 67.8733 293.632 67.2647 293.632 66.59C293.632 65.886 293.801 65.27 294.138 64.742C294.49 64.214 295.04 63.8033 295.788 63.51C296.536 63.202 297.512 63.048 298.714 63.048H301.86V65.05H299.088C298.282 65.05 297.724 65.182 297.416 65.446C297.123 65.71 296.976 66.04 296.976 66.436C296.976 66.876 297.145 67.228 297.482 67.492C297.834 67.7413 298.311 67.866 298.912 67.866C299.484 67.866 299.998 67.734 300.452 67.47C300.907 67.1913 301.237 66.788 301.442 66.26L301.97 67.844C301.721 68.6067 301.266 69.186 300.606 69.582C299.946 69.978 299.096 70.176 298.054 70.176ZM315.174 57.988C316.113 57.988 316.949 58.1787 317.682 58.56C318.43 58.9267 319.017 59.4987 319.442 60.276C319.868 61.0387 320.08 62.0213 320.08 63.224V70H316.648V63.752C316.648 62.7987 316.436 62.0947 316.01 61.64C315.6 61.1853 315.013 60.958 314.25 60.958C313.708 60.958 313.216 61.0753 312.776 61.31C312.351 61.53 312.014 61.8747 311.764 62.344C311.53 62.8133 311.412 63.4147 311.412 64.148V70H307.98V58.164H311.258V61.442L310.642 60.452C311.068 59.66 311.676 59.0513 312.468 58.626C313.26 58.2007 314.162 57.988 315.174 57.988ZM328.031 70.176C326.638 70.176 325.553 69.824 324.775 69.12C323.998 68.4013 323.609 67.338 323.609 65.93V55.546H327.041V65.886C327.041 66.3847 327.173 66.7733 327.437 67.052C327.701 67.316 328.061 67.448 328.515 67.448C329.058 67.448 329.52 67.3013 329.901 67.008L330.825 69.428C330.473 69.6773 330.048 69.868 329.549 70C329.065 70.1173 328.559 70.176 328.031 70.176ZM321.783 61.068V58.428H329.989V61.068H321.783ZM332.097 65.182V62.432H338.323V65.182H332.097ZM346.017 70.176C345.035 70.176 344.155 69.9853 343.377 69.604C342.615 69.2227 342.021 68.6433 341.595 67.866C341.17 67.074 340.957 66.0693 340.957 64.852V58.164H344.389V64.346C344.389 65.3287 344.595 66.0547 345.005 66.524C345.431 66.9787 346.025 67.206 346.787 67.206C347.315 67.206 347.785 67.096 348.195 66.876C348.606 66.6413 348.929 66.2893 349.163 65.82C349.398 65.336 349.515 64.7347 349.515 64.016V58.164H352.947V70H349.691V66.744L350.285 67.69C349.889 68.5113 349.303 69.1347 348.525 69.56C347.763 69.9707 346.927 70.176 346.017 70.176ZM356.127 70V58.164H359.559V70H356.127ZM357.843 56.514C357.212 56.514 356.699 56.3307 356.303 55.964C355.907 55.5973 355.709 55.1427 355.709 54.6C355.709 54.0573 355.907 53.6027 356.303 53.236C356.699 52.8693 357.212 52.686 357.843 52.686C358.474 52.686 358.987 52.862 359.383 53.214C359.779 53.5513 359.977 53.9913 359.977 54.534C359.977 55.106 359.779 55.5827 359.383 55.964C359.002 56.3307 358.488 56.514 357.843 56.514Z" fill="black" />
	<defs>
		<clipPath id="clip0_2_5">
			<rect width="24" height="24" fill="white" transform="translate(189 50)" />
		</clipPath>
	</defs>
</svg>
