<svg width="453" height="124" viewBox="0 0 453 124" fill="none" xmlns="http://www.w3.org/2000/svg">
<rect width="453" height="124" rx="10" fill="white"/>
<path d="M89.42 85V76.48H86.06V74.5H95.21V76.48H91.85V85H89.42ZM96.8891 88.03C96.4691 88.03 96.0541 87.965 95.6441 87.835C95.2341 87.705 94.8991 87.525 94.6391 87.295L95.4941 85.63C95.6741 85.79 95.8791 85.915 96.1091 86.005C96.3491 86.095 96.5841 86.14 96.8141 86.14C97.1441 86.14 97.4041 86.06 97.5941 85.9C97.7941 85.75 97.9741 85.495 98.1341 85.135L98.5541 84.145L98.7341 83.89L101.629 76.93H103.879L100.234 85.495C99.9741 86.145 99.6741 86.655 99.3341 87.025C99.0041 87.395 98.6341 87.655 98.2241 87.805C97.8241 87.955 97.3791 88.03 96.8891 88.03ZM98.2691 85.315L94.6691 76.93H97.0841L99.8741 83.68L98.2691 85.315ZM109.604 85.12C108.924 85.12 108.329 84.97 107.819 84.67C107.309 84.37 106.909 83.915 106.619 83.305C106.339 82.685 106.199 81.905 106.199 80.965C106.199 80.015 106.334 79.235 106.604 78.625C106.874 78.015 107.264 77.56 107.774 77.26C108.284 76.96 108.894 76.81 109.604 76.81C110.364 76.81 111.044 76.985 111.644 77.335C112.254 77.675 112.734 78.155 113.084 78.775C113.444 79.395 113.624 80.125 113.624 80.965C113.624 81.815 113.444 82.55 113.084 83.17C112.734 83.79 112.254 84.27 111.644 84.61C111.044 84.95 110.364 85.12 109.604 85.12ZM104.834 87.91V76.93H107.069V78.58L107.024 80.98L107.174 83.365V87.91H104.834ZM109.199 83.2C109.589 83.2 109.934 83.11 110.234 82.93C110.544 82.75 110.789 82.495 110.969 82.165C111.159 81.825 111.254 81.425 111.254 80.965C111.254 80.495 111.159 80.095 110.969 79.765C110.789 79.435 110.544 79.18 110.234 79C109.934 78.82 109.589 78.73 109.199 78.73C108.809 78.73 108.459 78.82 108.149 79C107.839 79.18 107.594 79.435 107.414 79.765C107.234 80.095 107.144 80.495 107.144 80.965C107.144 81.425 107.234 81.825 107.414 82.165C107.594 82.495 107.839 82.75 108.149 82.93C108.459 83.11 108.809 83.2 109.199 83.2ZM119.195 85.12C118.275 85.12 117.465 84.94 116.765 84.58C116.075 84.22 115.54 83.73 115.16 83.11C114.78 82.48 114.59 81.765 114.59 80.965C114.59 80.155 114.775 79.44 115.145 78.82C115.525 78.19 116.04 77.7 116.69 77.35C117.34 76.99 118.075 76.81 118.895 76.81C119.685 76.81 120.395 76.98 121.025 77.32C121.665 77.65 122.17 78.13 122.54 78.76C122.91 79.38 123.095 80.125 123.095 80.995C123.095 81.085 123.09 81.19 123.08 81.31C123.07 81.42 123.06 81.525 123.05 81.625H116.495V80.26H121.82L120.92 80.665C120.92 80.245 120.835 79.88 120.665 79.57C120.495 79.26 120.26 79.02 119.96 78.85C119.66 78.67 119.31 78.58 118.91 78.58C118.51 78.58 118.155 78.67 117.845 78.85C117.545 79.02 117.31 79.265 117.14 79.585C116.97 79.895 116.885 80.265 116.885 80.695V81.055C116.885 81.495 116.98 81.885 117.17 82.225C117.37 82.555 117.645 82.81 117.995 82.99C118.355 83.16 118.775 83.245 119.255 83.245C119.685 83.245 120.06 83.18 120.38 83.05C120.71 82.92 121.01 82.725 121.28 82.465L122.525 83.815C122.155 84.235 121.69 84.56 121.13 84.79C120.57 85.01 119.925 85.12 119.195 85.12ZM127.368 85.12C126.678 85.12 126.013 85.04 125.373 84.88C124.743 84.71 124.243 84.5 123.873 84.25L124.653 82.57C125.023 82.8 125.458 82.99 125.958 83.14C126.468 83.28 126.968 83.35 127.458 83.35C127.998 83.35 128.378 83.285 128.598 83.155C128.828 83.025 128.943 82.845 128.943 82.615C128.943 82.425 128.853 82.285 128.673 82.195C128.503 82.095 128.273 82.02 127.983 81.97C127.693 81.92 127.373 81.87 127.023 81.82C126.683 81.77 126.338 81.705 125.988 81.625C125.638 81.535 125.318 81.405 125.028 81.235C124.738 81.065 124.503 80.835 124.323 80.545C124.153 80.255 124.068 79.88 124.068 79.42C124.068 78.91 124.213 78.46 124.503 78.07C124.803 77.68 125.233 77.375 125.793 77.155C126.353 76.925 127.023 76.81 127.803 76.81C128.353 76.81 128.913 76.87 129.483 76.99C130.053 77.11 130.528 77.285 130.908 77.515L130.128 79.18C129.738 78.95 129.343 78.795 128.943 78.715C128.553 78.625 128.173 78.58 127.803 78.58C127.283 78.58 126.903 78.65 126.663 78.79C126.423 78.93 126.303 79.11 126.303 79.33C126.303 79.53 126.388 79.68 126.558 79.78C126.738 79.88 126.973 79.96 127.263 80.02C127.553 80.08 127.868 80.135 128.208 80.185C128.558 80.225 128.908 80.29 129.258 80.38C129.608 80.47 129.923 80.6 130.203 80.77C130.493 80.93 130.728 81.155 130.908 81.445C131.088 81.725 131.178 82.095 131.178 82.555C131.178 83.055 131.028 83.5 130.728 83.89C130.428 84.27 129.993 84.57 129.423 84.79C128.863 85.01 128.178 85.12 127.368 85.12ZM136.522 85.12C135.652 85.12 134.877 84.945 134.197 84.595C133.517 84.235 132.982 83.74 132.592 83.11C132.212 82.48 132.022 81.765 132.022 80.965C132.022 80.155 132.212 79.44 132.592 78.82C132.982 78.19 133.517 77.7 134.197 77.35C134.877 76.99 135.652 76.81 136.522 76.81C137.372 76.81 138.112 76.99 138.742 77.35C139.372 77.7 139.837 78.205 140.137 78.865L138.322 79.84C138.112 79.46 137.847 79.18 137.527 79C137.217 78.82 136.877 78.73 136.507 78.73C136.107 78.73 135.747 78.82 135.427 79C135.107 79.18 134.852 79.435 134.662 79.765C134.482 80.095 134.392 80.495 134.392 80.965C134.392 81.435 134.482 81.835 134.662 82.165C134.852 82.495 135.107 82.75 135.427 82.93C135.747 83.11 136.107 83.2 136.507 83.2C136.877 83.2 137.217 83.115 137.527 82.945C137.847 82.765 138.112 82.48 138.322 82.09L140.137 83.08C139.837 83.73 139.372 84.235 138.742 84.595C138.112 84.945 137.372 85.12 136.522 85.12ZM141.484 85V76.93H143.719V79.21L143.404 78.55C143.644 77.98 144.029 77.55 144.559 77.26C145.089 76.96 145.734 76.81 146.494 76.81V78.97C146.394 78.96 146.304 78.955 146.224 78.955C146.144 78.945 146.059 78.94 145.969 78.94C145.329 78.94 144.809 79.125 144.409 79.495C144.019 79.855 143.824 80.42 143.824 81.19V85H141.484ZM147.9 85V76.93H150.24V85H147.9ZM149.07 75.805C148.64 75.805 148.29 75.68 148.02 75.43C147.75 75.18 147.615 74.87 147.615 74.5C147.615 74.13 147.75 73.82 148.02 73.57C148.29 73.32 148.64 73.195 149.07 73.195C149.5 73.195 149.85 73.315 150.12 73.555C150.39 73.785 150.525 74.085 150.525 74.455C150.525 74.845 150.39 75.17 150.12 75.43C149.86 75.68 149.51 75.805 149.07 75.805ZM157.182 85.12C156.502 85.12 155.907 84.97 155.397 84.67C154.887 84.37 154.487 83.915 154.197 83.305C153.917 82.685 153.777 81.905 153.777 80.965C153.777 80.015 153.912 79.235 154.182 78.625C154.452 78.015 154.842 77.56 155.352 77.26C155.862 76.96 156.472 76.81 157.182 76.81C157.942 76.81 158.622 76.985 159.222 77.335C159.832 77.675 160.312 78.155 160.662 78.775C161.022 79.395 161.202 80.125 161.202 80.965C161.202 81.815 161.022 82.55 160.662 83.17C160.312 83.79 159.832 84.27 159.222 84.61C158.622 84.95 157.942 85.12 157.182 85.12ZM152.412 87.91V76.93H154.647V78.58L154.602 80.98L154.752 83.365V87.91H152.412ZM156.777 83.2C157.167 83.2 157.512 83.11 157.812 82.93C158.122 82.75 158.367 82.495 158.547 82.165C158.737 81.825 158.832 81.425 158.832 80.965C158.832 80.495 158.737 80.095 158.547 79.765C158.367 79.435 158.122 79.18 157.812 79C157.512 78.82 157.167 78.73 156.777 78.73C156.387 78.73 156.037 78.82 155.727 79C155.417 79.18 155.172 79.435 154.992 79.765C154.812 80.095 154.722 80.495 154.722 80.965C154.722 81.425 154.812 81.825 154.992 82.165C155.172 82.495 155.417 82.75 155.727 82.93C156.037 83.11 156.387 83.2 156.777 83.2ZM166.068 85.12C165.118 85.12 164.378 84.88 163.848 84.4C163.318 83.91 163.053 83.185 163.053 82.225V75.145H165.393V82.195C165.393 82.535 165.483 82.8 165.663 82.99C165.843 83.17 166.088 83.26 166.398 83.26C166.768 83.26 167.083 83.16 167.343 82.96L167.973 84.61C167.733 84.78 167.443 84.91 167.103 85C166.773 85.08 166.428 85.12 166.068 85.12ZM161.808 78.91V77.11H167.403V78.91H161.808ZM167.712 86.5L172.662 72.37H174.747L169.797 86.5H167.712ZM175.326 85V74.5H179.871C180.811 74.5 181.621 74.655 182.301 74.965C182.981 75.265 183.506 75.7 183.876 76.27C184.246 76.84 184.431 77.52 184.431 78.31C184.431 79.09 184.246 79.765 183.876 80.335C183.506 80.895 182.981 81.325 182.301 81.625C181.621 81.925 180.811 82.075 179.871 82.075H176.676L177.756 81.01V85H175.326ZM182.001 85L179.376 81.19H181.971L184.626 85H182.001ZM177.756 81.28L176.676 80.14H179.736C180.486 80.14 181.046 79.98 181.416 79.66C181.786 79.33 181.971 78.88 181.971 78.31C181.971 77.73 181.786 77.28 181.416 76.96C181.046 76.64 180.486 76.48 179.736 76.48H176.676L177.756 75.325V81.28ZM190.196 85.12C189.276 85.12 188.466 84.94 187.766 84.58C187.076 84.22 186.541 83.73 186.161 83.11C185.781 82.48 185.591 81.765 185.591 80.965C185.591 80.155 185.776 79.44 186.146 78.82C186.526 78.19 187.041 77.7 187.691 77.35C188.341 76.99 189.076 76.81 189.896 76.81C190.686 76.81 191.396 76.98 192.026 77.32C192.666 77.65 193.171 78.13 193.541 78.76C193.911 79.38 194.096 80.125 194.096 80.995C194.096 81.085 194.091 81.19 194.081 81.31C194.071 81.42 194.061 81.525 194.051 81.625H187.496V80.26H192.821L191.921 80.665C191.921 80.245 191.836 79.88 191.666 79.57C191.496 79.26 191.261 79.02 190.961 78.85C190.661 78.67 190.311 78.58 189.911 78.58C189.511 78.58 189.156 78.67 188.846 78.85C188.546 79.02 188.311 79.265 188.141 79.585C187.971 79.895 187.886 80.265 187.886 80.695V81.055C187.886 81.495 187.981 81.885 188.171 82.225C188.371 82.555 188.646 82.81 188.996 82.99C189.356 83.16 189.776 83.245 190.256 83.245C190.686 83.245 191.061 83.18 191.381 83.05C191.711 82.92 192.011 82.725 192.281 82.465L193.526 83.815C193.156 84.235 192.691 84.56 192.131 84.79C191.571 85.01 190.926 85.12 190.196 85.12ZM200.384 85V83.425L200.234 83.08V80.26C200.234 79.76 200.079 79.37 199.769 79.09C199.469 78.81 199.004 78.67 198.374 78.67C197.944 78.67 197.519 78.74 197.099 78.88C196.689 79.01 196.339 79.19 196.049 79.42L195.209 77.785C195.649 77.475 196.179 77.235 196.799 77.065C197.419 76.895 198.049 76.81 198.689 76.81C199.919 76.81 200.874 77.1 201.554 77.68C202.234 78.26 202.574 79.165 202.574 80.395V85H200.384ZM197.924 85.12C197.294 85.12 196.754 85.015 196.304 84.805C195.854 84.585 195.509 84.29 195.269 83.92C195.029 83.55 194.909 83.135 194.909 82.675C194.909 82.195 195.024 81.775 195.254 81.415C195.494 81.055 195.869 80.775 196.379 80.575C196.889 80.365 197.554 80.26 198.374 80.26H200.519V81.625H198.629C198.079 81.625 197.699 81.715 197.489 81.895C197.289 82.075 197.189 82.3 197.189 82.57C197.189 82.87 197.304 83.11 197.534 83.29C197.774 83.46 198.099 83.545 198.509 83.545C198.899 83.545 199.249 83.455 199.559 83.275C199.869 83.085 200.094 82.81 200.234 82.45L200.594 83.53C200.424 84.05 200.114 84.445 199.664 84.715C199.214 84.985 198.634 85.12 197.924 85.12ZM208.651 85.12C207.781 85.12 207.006 84.945 206.326 84.595C205.646 84.235 205.111 83.74 204.721 83.11C204.341 82.48 204.151 81.765 204.151 80.965C204.151 80.155 204.341 79.44 204.721 78.82C205.111 78.19 205.646 77.7 206.326 77.35C207.006 76.99 207.781 76.81 208.651 76.81C209.501 76.81 210.241 76.99 210.871 77.35C211.501 77.7 211.966 78.205 212.266 78.865L210.451 79.84C210.241 79.46 209.976 79.18 209.656 79C209.346 78.82 209.006 78.73 208.636 78.73C208.236 78.73 207.876 78.82 207.556 79C207.236 79.18 206.981 79.435 206.791 79.765C206.611 80.095 206.521 80.495 206.521 80.965C206.521 81.435 206.611 81.835 206.791 82.165C206.981 82.495 207.236 82.75 207.556 82.93C207.876 83.11 208.236 83.2 208.636 83.2C209.006 83.2 209.346 83.115 209.656 82.945C209.976 82.765 210.241 82.48 210.451 82.09L212.266 83.08C211.966 83.73 211.501 84.235 210.871 84.595C210.241 84.945 209.501 85.12 208.651 85.12ZM217.03 85.12C216.08 85.12 215.34 84.88 214.81 84.4C214.28 83.91 214.015 83.185 214.015 82.225V75.145H216.355V82.195C216.355 82.535 216.445 82.8 216.625 82.99C216.805 83.17 217.05 83.26 217.36 83.26C217.73 83.26 218.045 83.16 218.305 82.96L218.935 84.61C218.695 84.78 218.405 84.91 218.065 85C217.735 85.08 217.39 85.12 217.03 85.12ZM212.77 78.91V77.11H218.365V78.91H212.77ZM224.662 85V74.5H227.092V83.02H232.357V85H224.662ZM233.55 85V76.93H235.89V85H233.55ZM234.72 75.805C234.29 75.805 233.94 75.68 233.67 75.43C233.4 75.18 233.265 74.87 233.265 74.5C233.265 74.13 233.4 73.82 233.67 73.57C233.94 73.32 234.29 73.195 234.72 73.195C235.15 73.195 235.5 73.315 235.77 73.555C236.04 73.785 236.175 74.085 236.175 74.455C236.175 74.845 236.04 75.17 235.77 75.43C235.51 75.68 235.16 75.805 234.72 75.805ZM242.831 85.12C242.121 85.12 241.511 84.97 241.001 84.67C240.491 84.37 240.101 83.915 239.831 83.305C239.561 82.685 239.426 81.905 239.426 80.965C239.426 80.015 239.566 79.235 239.846 78.625C240.136 78.015 240.536 77.56 241.046 77.26C241.556 76.96 242.151 76.81 242.831 76.81C243.591 76.81 244.271 76.98 244.871 77.32C245.481 77.66 245.961 78.14 246.311 78.76C246.671 79.38 246.851 80.115 246.851 80.965C246.851 81.805 246.671 82.535 246.311 83.155C245.961 83.775 245.481 84.26 244.871 84.61C244.271 84.95 243.591 85.12 242.831 85.12ZM238.061 85V73.87H240.401V78.565L240.251 80.95L240.296 83.35V85H238.061ZM242.426 83.2C242.816 83.2 243.161 83.11 243.461 82.93C243.771 82.75 244.016 82.495 244.196 82.165C244.386 81.825 244.481 81.425 244.481 80.965C244.481 80.495 244.386 80.095 244.196 79.765C244.016 79.435 243.771 79.18 243.461 79C243.161 78.82 242.816 78.73 242.426 78.73C242.036 78.73 241.686 78.82 241.376 79C241.066 79.18 240.821 79.435 240.641 79.765C240.461 80.095 240.371 80.495 240.371 80.965C240.371 81.425 240.461 81.825 240.641 82.165C240.821 82.495 241.066 82.75 241.376 82.93C241.686 83.11 242.036 83.2 242.426 83.2ZM248.418 85V76.93H250.653V79.21L250.338 78.55C250.578 77.98 250.963 77.55 251.493 77.26C252.023 76.96 252.668 76.81 253.428 76.81V78.97C253.328 78.96 253.238 78.955 253.158 78.955C253.078 78.945 252.993 78.94 252.903 78.94C252.263 78.94 251.743 79.125 251.343 79.495C250.953 79.855 250.758 80.42 250.758 81.19V85H248.418ZM259.242 85V83.425L259.092 83.08V80.26C259.092 79.76 258.937 79.37 258.627 79.09C258.327 78.81 257.862 78.67 257.232 78.67C256.802 78.67 256.377 78.74 255.957 78.88C255.547 79.01 255.197 79.19 254.907 79.42L254.067 77.785C254.507 77.475 255.037 77.235 255.657 77.065C256.277 76.895 256.907 76.81 257.547 76.81C258.777 76.81 259.732 77.1 260.412 77.68C261.092 78.26 261.432 79.165 261.432 80.395V85H259.242ZM256.782 85.12C256.152 85.12 255.612 85.015 255.162 84.805C254.712 84.585 254.367 84.29 254.127 83.92C253.887 83.55 253.767 83.135 253.767 82.675C253.767 82.195 253.882 81.775 254.112 81.415C254.352 81.055 254.727 80.775 255.237 80.575C255.747 80.365 256.412 80.26 257.232 80.26H259.377V81.625H257.487C256.937 81.625 256.557 81.715 256.347 81.895C256.147 82.075 256.047 82.3 256.047 82.57C256.047 82.87 256.162 83.11 256.392 83.29C256.632 83.46 256.957 83.545 257.367 83.545C257.757 83.545 258.107 83.455 258.417 83.275C258.727 83.085 258.952 82.81 259.092 82.45L259.452 83.53C259.282 84.05 258.972 84.445 258.522 84.715C258.072 84.985 257.492 85.12 256.782 85.12ZM263.55 85V76.93H265.785V79.21L265.47 78.55C265.71 77.98 266.095 77.55 266.625 77.26C267.155 76.96 267.8 76.81 268.56 76.81V78.97C268.46 78.96 268.37 78.955 268.29 78.955C268.21 78.945 268.125 78.94 268.035 78.94C267.395 78.94 266.875 79.125 266.475 79.495C266.085 79.855 265.89 80.42 265.89 81.19V85H263.55ZM271.249 88.03C270.829 88.03 270.414 87.965 270.004 87.835C269.594 87.705 269.259 87.525 268.999 87.295L269.854 85.63C270.034 85.79 270.239 85.915 270.469 86.005C270.709 86.095 270.944 86.14 271.174 86.14C271.504 86.14 271.764 86.06 271.954 85.9C272.154 85.75 272.334 85.495 272.494 85.135L272.914 84.145L273.094 83.89L275.989 76.93H278.239L274.594 85.495C274.334 86.145 274.034 86.655 273.694 87.025C273.364 87.395 272.994 87.655 272.584 87.805C272.184 87.955 271.739 88.03 271.249 88.03ZM272.629 85.315L269.029 76.93H271.444L274.234 83.68L272.629 85.315ZM283.727 85V76.75C283.727 75.84 283.997 75.115 284.537 74.575C285.077 74.025 285.847 73.75 286.847 73.75C287.187 73.75 287.512 73.785 287.822 73.855C288.142 73.925 288.412 74.035 288.632 74.185L288.017 75.88C287.887 75.79 287.742 75.72 287.582 75.67C287.422 75.62 287.252 75.595 287.072 75.595C286.732 75.595 286.467 75.695 286.277 75.895C286.097 76.085 286.007 76.375 286.007 76.765V77.515L286.067 78.52V85H283.727ZM282.482 78.91V77.11H288.077V78.91H282.482ZM292.981 85.12C292.121 85.12 291.356 84.94 290.686 84.58C290.026 84.22 289.501 83.73 289.111 83.11C288.731 82.48 288.541 81.765 288.541 80.965C288.541 80.155 288.731 79.44 289.111 78.82C289.501 78.19 290.026 77.7 290.686 77.35C291.356 76.99 292.121 76.81 292.981 76.81C293.831 76.81 294.591 76.99 295.261 77.35C295.931 77.7 296.456 78.185 296.836 78.805C297.216 79.425 297.406 80.145 297.406 80.965C297.406 81.765 297.216 82.48 296.836 83.11C296.456 83.73 295.931 84.22 295.261 84.58C294.591 84.94 293.831 85.12 292.981 85.12ZM292.981 83.2C293.371 83.2 293.721 83.11 294.031 82.93C294.341 82.75 294.586 82.495 294.766 82.165C294.946 81.825 295.036 81.425 295.036 80.965C295.036 80.495 294.946 80.095 294.766 79.765C294.586 79.435 294.341 79.18 294.031 79C293.721 78.82 293.371 78.73 292.981 78.73C292.591 78.73 292.241 78.82 291.931 79C291.621 79.18 291.371 79.435 291.181 79.765C291.001 80.095 290.911 80.495 290.911 80.965C290.911 81.425 291.001 81.825 291.181 82.165C291.371 82.495 291.621 82.75 291.931 82.93C292.241 83.11 292.591 83.2 292.981 83.2ZM298.97 85V76.93H301.205V79.21L300.89 78.55C301.13 77.98 301.515 77.55 302.045 77.26C302.575 76.96 303.22 76.81 303.98 76.81V78.97C303.88 78.96 303.79 78.955 303.71 78.955C303.63 78.945 303.545 78.94 303.455 78.94C302.815 78.94 302.295 79.125 301.895 79.495C301.505 79.855 301.31 80.42 301.31 81.19V85H298.97ZM308.463 85L313.143 74.5H315.543L320.238 85H317.688L313.848 75.73H314.808L310.953 85H308.463ZM310.803 82.75L311.448 80.905H316.848L317.508 82.75H310.803ZM321.327 85V74.5H323.757V85H321.327ZM335.522 85.18C334.712 85.18 333.957 85.05 333.257 84.79C332.567 84.52 331.967 84.14 331.457 83.65C330.947 83.16 330.547 82.585 330.257 81.925C329.977 81.265 329.837 80.54 329.837 79.75C329.837 78.96 329.977 78.235 330.257 77.575C330.547 76.915 330.947 76.34 331.457 75.85C331.977 75.36 332.582 74.985 333.272 74.725C333.962 74.455 334.717 74.32 335.537 74.32C336.447 74.32 337.267 74.48 337.997 74.8C338.737 75.11 339.357 75.57 339.857 76.18L338.297 77.62C337.937 77.21 337.537 76.905 337.097 76.705C336.657 76.495 336.177 76.39 335.657 76.39C335.167 76.39 334.717 76.47 334.307 76.63C333.897 76.79 333.542 77.02 333.242 77.32C332.942 77.62 332.707 77.975 332.537 78.385C332.377 78.795 332.297 79.25 332.297 79.75C332.297 80.25 332.377 80.705 332.537 81.115C332.707 81.525 332.942 81.88 333.242 82.18C333.542 82.48 333.897 82.71 334.307 82.87C334.717 83.03 335.167 83.11 335.657 83.11C336.177 83.11 336.657 83.01 337.097 82.81C337.537 82.6 337.937 82.285 338.297 81.865L339.857 83.305C339.357 83.915 338.737 84.38 337.997 84.7C337.267 85.02 336.442 85.18 335.522 85.18ZM346.238 76.81C346.878 76.81 347.448 76.94 347.948 77.2C348.458 77.45 348.858 77.84 349.148 78.37C349.438 78.89 349.583 79.56 349.583 80.38V85H347.243V80.74C347.243 80.09 347.098 79.61 346.808 79.3C346.528 78.99 346.128 78.835 345.608 78.835C345.238 78.835 344.903 78.915 344.603 79.075C344.313 79.225 344.083 79.46 343.913 79.78C343.753 80.1 343.673 80.51 343.673 81.01V85H341.333V73.87H343.673V79.165L343.148 78.49C343.438 77.95 343.853 77.535 344.393 77.245C344.933 76.955 345.548 76.81 346.238 76.81ZM356.654 85V83.425L356.504 83.08V80.26C356.504 79.76 356.349 79.37 356.039 79.09C355.739 78.81 355.274 78.67 354.644 78.67C354.214 78.67 353.789 78.74 353.369 78.88C352.959 79.01 352.609 79.19 352.319 79.42L351.479 77.785C351.919 77.475 352.449 77.235 353.069 77.065C353.689 76.895 354.319 76.81 354.959 76.81C356.189 76.81 357.144 77.1 357.824 77.68C358.504 78.26 358.844 79.165 358.844 80.395V85H356.654ZM354.194 85.12C353.564 85.12 353.024 85.015 352.574 84.805C352.124 84.585 351.779 84.29 351.539 83.92C351.299 83.55 351.179 83.135 351.179 82.675C351.179 82.195 351.294 81.775 351.524 81.415C351.764 81.055 352.139 80.775 352.649 80.575C353.159 80.365 353.824 80.26 354.644 80.26H356.789V81.625H354.899C354.349 81.625 353.969 81.715 353.759 81.895C353.559 82.075 353.459 82.3 353.459 82.57C353.459 82.87 353.574 83.11 353.804 83.29C354.044 83.46 354.369 83.545 354.779 83.545C355.169 83.545 355.519 83.455 355.829 83.275C356.139 83.085 356.364 82.81 356.504 82.45L356.864 83.53C356.694 84.05 356.384 84.445 355.934 84.715C355.484 84.985 354.904 85.12 354.194 85.12ZM364.262 85.12C363.312 85.12 362.572 84.88 362.042 84.4C361.512 83.91 361.247 83.185 361.247 82.225V75.145H363.587V82.195C363.587 82.535 363.677 82.8 363.857 82.99C364.037 83.17 364.282 83.26 364.592 83.26C364.962 83.26 365.277 83.16 365.537 82.96L366.167 84.61C365.927 84.78 365.637 84.91 365.297 85C364.967 85.08 364.622 85.12 364.262 85.12ZM360.002 78.91V77.11H365.597V78.91H360.002Z" fill="#6A6868"/>
<g clip-path="url(#clip0_2_5)">
<path d="M165 47C165 47.5304 164.789 48.0391 164.414 48.4142C164.039 48.7893 163.53 49 163 49H157L153 53V42C153 40.9 153.9 40 155 40H163C163.53 40 164.039 40.2107 164.414 40.5858C164.789 40.9609 165 41.4696 165 42V47Z" stroke="black" stroke-width="3" stroke-linecap="round" stroke-linejoin="round"/>
<path d="M169 47H171C171.53 47 172.039 47.2107 172.414 47.5858C172.789 47.9609 173 48.4696 173 49V60L169 56H163C162.47 56 161.961 55.7893 161.586 55.4142C161.211 55.0391 161 54.5304 161 54V53" stroke="black" stroke-width="3" stroke-linecap="round" stroke-linejoin="round"/>
</g>
<path d="M185 49.64C185.213 48.5333 185.727 47.68 186.54 47.08C187.367 46.4667 188.433 46.16 189.74 46.16C191.26 46.16 192.413 46.5467 193.2 47.32C194 48.0933 194.4 49.2267 194.4 50.72V54.36C194.4 54.6533 194.453 54.86 194.56 54.98C194.68 55.0867 194.847 55.14 195.06 55.14H195.48V57L194.88 57.02H194.66C194.047 57.0467 193.5 56.9533 193.02 56.74C192.54 56.5133 192.26 56.06 192.18 55.38C191.913 55.94 191.473 56.3933 190.86 56.74C190.26 57.0733 189.52 57.24 188.64 57.24C187.547 57.24 186.633 56.9667 185.9 56.42C185.18 55.8733 184.82 55.14 184.82 54.22C184.82 53.5533 184.973 53.0133 185.28 52.6C185.6 52.1867 186.047 51.8667 186.62 51.64C187.193 51.4 187.94 51.1867 188.86 51L191.82 50.42C191.82 49.5933 191.647 48.9867 191.3 48.6C190.953 48.2 190.433 48 189.74 48C189.167 48 188.7 48.1533 188.34 48.46C187.98 48.7533 187.74 49.1933 187.62 49.78L185 49.64ZM187.48 54.14C187.48 54.5267 187.64 54.84 187.96 55.08C188.28 55.32 188.74 55.44 189.34 55.44C189.833 55.44 190.267 55.32 190.64 55.08C191.027 54.84 191.327 54.4867 191.54 54.02C191.767 53.54 191.88 52.9667 191.88 52.3V52.16L189.86 52.52C189.767 52.5333 189.667 52.5467 189.56 52.56C189.08 52.6533 188.693 52.7533 188.4 52.86C188.12 52.9533 187.893 53.1067 187.72 53.32C187.56 53.52 187.48 53.7933 187.48 54.14ZM203.594 49.8C203.5 49.28 203.247 48.8667 202.834 48.56C202.42 48.24 201.954 48.08 201.434 48.08C200.927 48.08 200.5 48.2067 200.154 48.46C199.82 48.7133 199.66 49.0467 199.674 49.46C199.687 49.86 199.887 50.1667 200.274 50.38C200.66 50.5933 201.174 50.76 201.814 50.88C202.84 51.0533 203.674 51.2667 204.314 51.52C204.967 51.7733 205.46 52.1133 205.794 52.54C206.14 52.9667 206.314 53.5067 206.314 54.16C206.314 54.84 206.114 55.4133 205.714 55.88C205.314 56.3333 204.774 56.6733 204.094 56.9C203.414 57.1267 202.647 57.24 201.794 57.24C200.834 57.24 199.98 57.1 199.234 56.82C198.5 56.5267 197.914 56.1067 197.474 55.56C197.047 55.0133 196.807 54.3733 196.754 53.64L199.374 53.5C199.44 53.8733 199.574 54.1933 199.774 54.46C199.974 54.7267 200.24 54.9333 200.574 55.08C200.907 55.2267 201.294 55.3 201.734 55.3C202.254 55.3 202.707 55.2 203.094 55C203.48 54.8 203.667 54.5 203.654 54.1C203.654 53.82 203.567 53.5933 203.394 53.42C203.234 53.2467 203.027 53.12 202.774 53.04C202.534 52.9467 202.207 52.8533 201.794 52.76C201.687 52.7333 201.554 52.7067 201.394 52.68C200.407 52.48 199.607 52.26 198.994 52.02C198.38 51.78 197.894 51.46 197.534 51.06C197.187 50.6467 197.014 50.1267 197.014 49.5C197.014 48.8067 197.194 48.2133 197.554 47.72C197.927 47.2133 198.454 46.8267 199.134 46.56C199.827 46.2933 200.64 46.16 201.574 46.16C202.827 46.16 203.86 46.4733 204.674 47.1C205.5 47.7267 206.007 48.5867 206.194 49.68L203.594 49.8ZM214.785 49.8C214.692 49.28 214.438 48.8667 214.025 48.56C213.612 48.24 213.145 48.08 212.625 48.08C212.118 48.08 211.692 48.2067 211.345 48.46C211.012 48.7133 210.852 49.0467 210.865 49.46C210.878 49.86 211.078 50.1667 211.465 50.38C211.852 50.5933 212.365 50.76 213.005 50.88C214.032 51.0533 214.865 51.2667 215.505 51.52C216.158 51.7733 216.652 52.1133 216.985 52.54C217.332 52.9667 217.505 53.5067 217.505 54.16C217.505 54.84 217.305 55.4133 216.905 55.88C216.505 56.3333 215.965 56.6733 215.285 56.9C214.605 57.1267 213.838 57.24 212.985 57.24C212.025 57.24 211.172 57.1 210.425 56.82C209.692 56.5267 209.105 56.1067 208.665 55.56C208.238 55.0133 207.998 54.3733 207.945 53.64L210.565 53.5C210.632 53.8733 210.765 54.1933 210.965 54.46C211.165 54.7267 211.432 54.9333 211.765 55.08C212.098 55.2267 212.485 55.3 212.925 55.3C213.445 55.3 213.898 55.2 214.285 55C214.672 54.8 214.858 54.5 214.845 54.1C214.845 53.82 214.758 53.5933 214.585 53.42C214.425 53.2467 214.218 53.12 213.965 53.04C213.725 52.9467 213.398 52.8533 212.985 52.76C212.878 52.7333 212.745 52.7067 212.585 52.68C211.598 52.48 210.798 52.26 210.185 52.02C209.572 51.78 209.085 51.46 208.725 51.06C208.378 50.6467 208.205 50.1267 208.205 49.5C208.205 48.8067 208.385 48.2133 208.745 47.72C209.118 47.2133 209.645 46.8267 210.325 46.56C211.018 46.2933 211.832 46.16 212.765 46.16C214.018 46.16 215.052 46.4733 215.865 47.1C216.692 47.7267 217.198 48.5867 217.385 49.68L214.785 49.8ZM221.964 46.4V57H219.404V46.4H221.964ZM222.024 42.82V44.94H219.364V42.82H222.024ZM230.976 49.8C230.883 49.28 230.63 48.8667 230.216 48.56C229.803 48.24 229.336 48.08 228.816 48.08C228.31 48.08 227.883 48.2067 227.536 48.46C227.203 48.7133 227.043 49.0467 227.056 49.46C227.07 49.86 227.27 50.1667 227.656 50.38C228.043 50.5933 228.556 50.76 229.196 50.88C230.223 51.0533 231.056 51.2667 231.696 51.52C232.35 51.7733 232.843 52.1133 233.176 52.54C233.523 52.9667 233.696 53.5067 233.696 54.16C233.696 54.84 233.496 55.4133 233.096 55.88C232.696 56.3333 232.156 56.6733 231.476 56.9C230.796 57.1267 230.03 57.24 229.176 57.24C228.216 57.24 227.363 57.1 226.616 56.82C225.883 56.5267 225.296 56.1067 224.856 55.56C224.43 55.0133 224.19 54.3733 224.136 53.64L226.756 53.5C226.823 53.8733 226.956 54.1933 227.156 54.46C227.356 54.7267 227.623 54.9333 227.956 55.08C228.29 55.2267 228.676 55.3 229.116 55.3C229.636 55.3 230.09 55.2 230.476 55C230.863 54.8 231.05 54.5 231.036 54.1C231.036 53.82 230.95 53.5933 230.776 53.42C230.616 53.2467 230.41 53.12 230.156 53.04C229.916 52.9467 229.59 52.8533 229.176 52.76C229.07 52.7333 228.936 52.7067 228.776 52.68C227.79 52.48 226.99 52.26 226.376 52.02C225.763 51.78 225.276 51.46 224.916 51.06C224.57 50.6467 224.396 50.1267 224.396 49.5C224.396 48.8067 224.576 48.2133 224.936 47.72C225.31 47.2133 225.836 46.8267 226.516 46.56C227.21 46.2933 228.023 46.16 228.956 46.16C230.21 46.16 231.243 46.4733 232.056 47.1C232.883 47.7267 233.39 48.5867 233.576 49.68L230.976 49.8ZM239.101 44V53.74C239.101 54.1533 239.201 54.4733 239.401 54.7C239.614 54.9133 239.914 55.02 240.301 55.02H241.901V57H239.881C238.788 57 237.954 56.7267 237.381 56.18C236.821 55.6333 236.541 54.82 236.541 53.74V44H239.101ZM241.901 46.4V48.38H234.861V46.4H241.901ZM243.555 49.64C243.768 48.5333 244.281 47.68 245.095 47.08C245.921 46.4667 246.988 46.16 248.295 46.16C249.815 46.16 250.968 46.5467 251.755 47.32C252.555 48.0933 252.955 49.2267 252.955 50.72V54.36C252.955 54.6533 253.008 54.86 253.115 54.98C253.235 55.0867 253.401 55.14 253.615 55.14H254.035V57L253.435 57.02H253.215C252.601 57.0467 252.055 56.9533 251.575 56.74C251.095 56.5133 250.815 56.06 250.735 55.38C250.468 55.94 250.028 56.3933 249.415 56.74C248.815 57.0733 248.075 57.24 247.195 57.24C246.101 57.24 245.188 56.9667 244.455 56.42C243.735 55.8733 243.375 55.14 243.375 54.22C243.375 53.5533 243.528 53.0133 243.835 52.6C244.155 52.1867 244.601 51.8667 245.175 51.64C245.748 51.4 246.495 51.1867 247.415 51L250.375 50.42C250.375 49.5933 250.201 48.9867 249.855 48.6C249.508 48.2 248.988 48 248.295 48C247.721 48 247.255 48.1533 246.895 48.46C246.535 48.7533 246.295 49.1933 246.175 49.78L243.555 49.64ZM246.035 54.14C246.035 54.5267 246.195 54.84 246.515 55.08C246.835 55.32 247.295 55.44 247.895 55.44C248.388 55.44 248.821 55.32 249.195 55.08C249.581 54.84 249.881 54.4867 250.095 54.02C250.321 53.54 250.435 52.9667 250.435 52.3V52.16L248.415 52.52C248.321 52.5333 248.221 52.5467 248.115 52.56C247.635 52.6533 247.248 52.7533 246.955 52.86C246.675 52.9533 246.448 53.1067 246.275 53.32C246.115 53.52 246.035 53.7933 246.035 54.14ZM258.247 46.4L258.367 49.38L258.047 49.22C258.194 48.1667 258.574 47.3933 259.187 46.9C259.814 46.4067 260.587 46.16 261.507 46.16C262.654 46.16 263.547 46.5267 264.187 47.26C264.827 47.98 265.147 48.9533 265.147 50.18V57H262.567V51C262.567 50.0667 262.427 49.3733 262.147 48.92C261.867 48.4667 261.394 48.24 260.727 48.24C260.021 48.24 259.467 48.48 259.067 48.96C258.681 49.4267 258.487 50.1067 258.487 51V57H255.927V46.4H258.247ZM271.288 44V53.74C271.288 54.1533 271.388 54.4733 271.588 54.7C271.802 54.9133 272.102 55.02 272.488 55.02H274.088V57H272.068C270.975 57 270.142 56.7267 269.568 56.18C269.008 55.6333 268.728 54.82 268.728 53.74V44H271.288ZM274.088 46.4V48.38H267.048V46.4H274.088ZM282.362 50.08V52.24H275.562V50.08H282.362ZM291.34 57L291.28 54.08L291.6 54.24C291.44 55.28 291.053 56.04 290.44 56.52C289.826 57 289.066 57.24 288.16 57.24C287.04 57.24 286.16 56.8733 285.52 56.14C284.893 55.4067 284.58 54.4333 284.58 53.22V46.4H287.14V52.38C287.14 53.3267 287.28 54.0267 287.56 54.48C287.84 54.9333 288.306 55.16 288.96 55.16C289.653 55.16 290.186 54.9267 290.56 54.46C290.946 53.98 291.14 53.2867 291.14 52.38V46.4H293.7V57H291.34ZM298.858 46.4V57H296.298V46.4H298.858ZM298.918 42.82V44.94H296.258V42.82H298.918Z" fill="black"/>
<defs>
<clipPath id="clip0_2_5">
<rect width="24" height="24" fill="white" transform="translate(151 38)"/>
</clipPath>
</defs>
</svg>
