<svg width="249" height="39" viewBox="0 0 249 39" fill="none" xmlns="http://www.w3.org/2000/svg">
<path d="M35.5115 14.1845C29.9707 12.0611 34.5423 3.92962 26.9215 4.13602C17.609 4.38826 3.01649 19.0551 4.50683 28.5853C5.24744 33.3045 8.92747 31.3233 10.6555 32.0113C11.803 32.4652 13.1608 34.5154 14.6283 34.841C8.13655 38.5787 -0.20199 35.0199 0.00373329 27.0076C0.30089 15.2072 17.321 -1.90866 29.4542 0.173496C36.2293 1.33841 37.0705 8.55258 35.5115 14.1845Z" fill="white"/>
<path d="M9.00079 20.9813L14.3679 26.0537C17.7875 29.1311 26.8667 34.5016 30.9812 30.8602C35.8317 26.5674 25.5731 11.7401 20.8506 9.37356L24.997 7.50696C31.4568 12.2354 41.2765 27.604 33.2762 34.2953C28.1148 38.6109 19.7945 34.9557 14.9029 31.7408C11.177 29.2917 5.79152 25.7786 9.00079 20.9768V20.9813Z" fill="white"/>
<path d="M14.6329 1.72821C12.8957 1.77408 11.5379 4.0397 10.2625 4.4387C9.12869 4.79184 7.56055 3.82414 5.85534 5.10372C4.0084 6.48877 4.63944 13.1021 1.09643 14.7487C-1.08424 8.33244 0.273391 0.682559 8.15031 0.0267239C8.75833 -0.0237249 15.5198 0.425734 14.6329 1.72365V1.72821Z" fill="white"/>
<path d="M27.6073 20.9813C30.5149 25.806 25.2438 31.3187 20.855 26.9205L27.6073 20.9813Z" fill="white"/>
<path d="M67.2658 23.8754C67.2658 26.0553 66.4884 27.6074 64.9336 28.5316C63.3888 29.4557 61.4027 29.9179 58.9751 29.9179H52.52V9.07812H58.5988C60.886 9.07812 62.7518 9.49 64.1963 10.3137C65.6407 11.1375 66.3631 12.4937 66.3631 14.3822C66.3631 15.5878 66.0019 16.5722 65.2797 17.3357C64.5574 18.0991 63.6395 18.6165 62.5262 18.8877C63.8703 19.0987 64.9938 19.5959 65.8965 20.3796C66.8094 21.163 67.2658 22.3283 67.2658 23.8754ZM62.195 14.7439C62.195 13.8197 61.9041 13.1466 61.3224 12.7247C60.7506 12.3028 59.8829 12.0918 58.7193 12.0918H56.6429V17.5919H58.8999C60.0334 17.5919 60.866 17.3659 61.3976 16.9138C61.9292 16.4617 62.195 15.7384 62.195 14.7439ZM62.9926 23.7699C62.9926 22.5745 62.6615 21.7307 61.9995 21.2384C61.3374 20.7462 60.4045 20.5 59.2007 20.5H56.6429V26.8288H59.0202C60.2039 26.8288 61.1618 26.6129 61.8941 26.1809C62.6265 25.7388 62.9926 24.9352 62.9926 23.7699ZM82.5639 13.5233C83.0455 13.5233 83.4818 13.5635 83.8731 13.6439C84.2743 13.7142 84.6705 13.8197 85.0618 13.9603L84.3545 20.1836H81.7064V17.0644C80.6932 17.1448 79.8055 17.6019 79.043 18.4357C78.2906 19.2695 77.6938 20.3996 77.2525 21.826V27.1603H80.4274V29.9179H71.0382V27.1603H73.2801V16.7027H71.0382V13.9603H76.3045L77.0418 17.6219C77.6337 16.2457 78.3709 15.221 79.2537 14.548C80.1465 13.8649 81.2498 13.5233 82.5639 13.5233ZM95.5599 13.5082C97.1249 13.5082 98.464 13.8548 99.5774 14.548C100.691 15.2311 101.534 16.2055 102.105 17.4712C102.687 18.727 102.978 20.2036 102.978 21.9014C102.978 23.6292 102.687 25.1311 102.105 26.4069C101.524 27.6727 100.671 28.6521 99.5474 29.3453C98.4339 30.0283 97.0998 30.37 95.5449 30.37C93.98 30.37 92.6409 30.0334 91.5274 29.3604C90.414 28.6872 89.5663 27.7178 88.9846 26.4521C88.4027 25.1863 88.1118 23.6795 88.1118 21.9315C88.1118 20.264 88.4027 18.7972 88.9846 17.5316C89.5763 16.2557 90.429 15.2663 91.5425 14.5631C92.666 13.8599 94.0051 13.5082 95.5599 13.5082ZM95.5599 16.5069C94.4364 16.5069 93.604 16.9489 93.0622 17.8329C92.5206 18.707 92.2497 20.0732 92.2497 21.9315C92.2497 23.8101 92.5206 25.1863 93.0622 26.0603C93.604 26.9344 94.4315 27.3712 95.5449 27.3712C96.6584 27.3712 97.4859 26.9344 98.0277 26.0603C98.5693 25.1763 98.8402 23.79 98.8402 21.9014C98.8402 20.063 98.5693 18.707 98.0277 17.8329C97.4859 16.9489 96.6634 16.5069 95.5599 16.5069ZM122.369 13.9603L119.931 29.9179H115.267L113.657 18.8425L111.942 29.9179H107.367L104.824 13.9603H108.556L109.94 27.4466L111.911 15.9795H115.568L117.373 27.4466L118.788 13.9603H122.369ZM131.107 27.4316C132.06 27.4316 132.812 27.2708 133.364 26.9493C133.925 26.6178 134.207 26.1557 134.207 25.5631C134.207 25.1512 134.111 24.8146 133.92 24.5535C133.73 24.2922 133.364 24.0462 132.822 23.8152C132.29 23.5741 131.483 23.3078 130.399 23.0165C129.296 22.7352 128.373 22.4037 127.631 22.022C126.889 21.6302 126.312 21.1279 125.9 20.5151C125.489 19.8923 125.283 19.1289 125.283 18.2247C125.283 17.3006 125.544 16.4818 126.066 15.7686C126.598 15.0552 127.36 14.5028 128.353 14.111C129.356 13.7092 130.54 13.5082 131.904 13.5082C134.332 13.5082 136.403 14.1311 138.118 15.3767L136.494 17.8027C135.039 16.8786 133.54 16.4165 131.994 16.4165C130.209 16.4165 129.316 16.9289 129.316 17.9535C129.316 18.3051 129.421 18.5964 129.632 18.8274C129.853 19.0585 130.229 19.2795 130.761 19.4904C131.302 19.7015 132.13 19.9626 133.243 20.274C134.387 20.5955 135.32 20.9471 136.042 21.3288C136.774 21.7105 137.341 22.2179 137.742 22.8507C138.153 23.4837 138.36 24.2922 138.36 25.2767C138.36 26.3818 138.028 27.321 137.366 28.0946C136.714 28.858 135.842 29.4306 134.748 29.8123C133.654 30.184 132.446 30.37 131.122 30.37C129.677 30.37 128.388 30.164 127.255 29.7521C126.121 29.3402 125.143 28.7727 124.321 28.0493L126.382 25.7288C127.034 26.2512 127.761 26.668 128.564 26.9795C129.366 27.2808 130.214 27.4316 131.107 27.4316ZM146.48 23.1522C146.59 24.5886 147.011 25.6535 147.743 26.3467C148.486 27.0397 149.435 27.3863 150.588 27.3863C151.32 27.3863 152.022 27.2708 152.694 27.0397C153.366 26.8087 154.044 26.4672 154.725 26.0151L156.38 28.2904C155.608 28.9434 154.705 29.4557 153.672 29.8274C152.639 30.1891 151.526 30.37 150.332 30.37C148.637 30.37 147.193 30.0183 145.999 29.3151C144.815 28.6119 143.917 27.6274 143.305 26.3616C142.703 25.0959 142.402 23.6292 142.402 21.9617C142.402 20.3645 142.698 18.9279 143.29 17.6521C143.892 16.3663 144.755 15.3567 145.878 14.6233C147.011 13.8799 148.346 13.5082 149.88 13.5082C151.324 13.5082 152.583 13.8297 153.657 14.4727C154.731 15.1156 155.558 16.0448 156.14 17.2604C156.722 18.4657 157.013 19.9023 157.013 21.5699C157.013 22.1426 156.987 22.6699 156.938 23.1522H146.48ZM149.896 16.311C148.902 16.311 148.1 16.6676 147.489 17.3808C146.886 18.084 146.535 19.1589 146.435 20.6055H153.146C153.126 19.2293 152.84 18.1695 152.289 17.4261C151.746 16.6827 150.948 16.311 149.896 16.311ZM172.822 13.5233C173.304 13.5233 173.74 13.5635 174.132 13.6439C174.533 13.7142 174.929 13.8197 175.32 13.9603L174.613 20.1836H171.965V17.0644C170.951 17.1448 170.064 17.6019 169.301 18.4357C168.549 19.2695 167.953 20.3996 167.511 21.826V27.1603H170.686V29.9179H161.296V27.1603H163.538V16.7027H161.296V13.9603H166.563L167.301 17.6219C167.892 16.2457 168.629 15.221 169.512 14.548C170.406 13.8649 171.509 13.5233 172.822 13.5233ZM211.303 23.0165C211.303 24.453 211.012 25.7288 210.431 26.8439C209.859 27.9489 209.011 28.8128 207.888 29.4357C206.765 30.0585 205.415 30.37 203.84 30.37C202.245 30.37 200.891 30.0636 199.777 29.4508C198.664 28.838 197.821 27.9791 197.25 26.874C196.687 25.769 196.407 24.4831 196.407 23.0165V9.07812H200.53V21.8562C200.53 23.0818 200.635 24.0813 200.846 24.8548C201.056 25.6284 201.403 26.211 201.885 26.6027C202.366 26.9946 203.017 27.1904 203.84 27.1904C204.663 27.1904 205.315 26.9946 205.796 26.6027C206.287 26.211 206.639 25.6284 206.85 24.8548C207.061 24.0813 207.166 23.0818 207.166 21.8562V9.07812H211.303V23.0165ZM221.365 27.4316C222.318 27.4316 223.07 27.2708 223.622 26.9493C224.184 26.6178 224.465 26.1557 224.465 25.5631C224.465 25.1512 224.369 24.8146 224.179 24.5535C223.988 24.2922 223.622 24.0462 223.081 23.8152C222.549 23.5741 221.742 23.3078 220.658 23.0165C219.555 22.7352 218.632 22.4037 217.889 22.022C217.147 21.6302 216.57 21.1279 216.159 20.5151C215.748 19.8923 215.542 19.1289 215.542 18.2247C215.542 17.3006 215.803 16.4818 216.325 15.7686C216.857 15.0552 217.618 14.5028 218.612 14.111C219.615 13.7092 220.799 13.5082 222.162 13.5082C224.591 13.5082 226.662 14.1311 228.377 15.3767L226.751 17.8027C225.298 16.8786 223.797 16.4165 222.253 16.4165C220.467 16.4165 219.575 16.9289 219.575 17.9535C219.575 18.3051 219.68 18.5964 219.891 18.8274C220.111 19.0585 220.487 19.2795 221.019 19.4904C221.561 19.7015 222.389 19.9626 223.502 20.274C224.645 20.5955 225.578 20.9471 226.301 21.3288C227.033 21.7105 227.6 22.2179 228.001 22.8507C228.412 23.4837 228.617 24.2922 228.617 25.2767C228.617 26.3818 228.286 27.321 227.625 28.0946C226.973 28.858 226.1 29.4306 225.007 29.8123C223.913 30.184 222.705 30.37 221.381 30.37C219.936 30.37 218.646 30.164 217.513 29.7521C216.379 29.3402 215.402 28.7727 214.579 28.0493L216.641 25.7288C217.293 26.2512 218.02 26.668 218.823 26.9795C219.625 27.2808 220.472 27.4316 221.365 27.4316ZM236.738 23.1522C236.849 24.5886 237.27 25.6535 238.002 26.3467C238.745 27.0397 239.692 27.3863 240.846 27.3863C241.578 27.3863 242.281 27.2708 242.953 27.0397C243.625 26.8087 244.303 26.4672 244.984 26.0151L246.639 28.2904C245.867 28.9434 244.964 29.4557 243.931 29.8274C242.898 30.1891 241.785 30.37 240.591 30.37C238.896 30.37 237.45 30.0183 236.257 29.3151C235.074 28.6119 234.176 27.6274 233.564 26.3616C232.962 25.0959 232.661 23.6292 232.661 21.9617C232.661 20.3645 232.957 18.9279 233.549 17.6521C234.151 16.3663 235.014 15.3567 236.136 14.6233C237.27 13.8799 238.604 13.5082 240.139 13.5082C241.583 13.5082 242.842 13.8297 243.916 14.4727C244.99 15.1156 245.816 16.0448 246.399 17.2604C246.981 18.4657 247.271 19.9023 247.271 21.5699C247.271 22.1426 247.246 22.6699 247.195 23.1522H236.738ZM240.154 16.311C239.161 16.311 238.358 16.6676 237.746 17.3808C237.145 18.084 236.794 19.1589 236.694 20.6055H243.404C243.384 19.2293 243.098 18.1695 242.546 17.4261C242.005 16.6827 241.207 16.311 240.154 16.311Z" fill="white"/>
</svg>
