<svg width="187" height="35" viewBox="0 0 187 35" fill="none" xmlns="http://www.w3.org/2000/svg">
<g clip-path="url(#clip0_103_2)">
<mask id="mask0_103_2" style="mask-type:luminance" maskUnits="userSpaceOnUse" x="0" y="0" width="187" height="35">
<path d="M187 0.522827H0V34.7475H187V0.522827Z" fill="white"/>
</mask>
<g mask="url(#mask0_103_2)">
<g filter="url(#filter0_d_103_2)">
<path d="M0 27.1952V1.75256H16.626V5.61672H4.6307V12.524H15.7642V16.3881H4.6307V23.3323H16.7249V27.1964H0V27.1952Z" fill="white"/>
</g>
<g filter="url(#filter1_d_103_2)">
<path d="M23.9107 16.0163V27.1976H19.3926V8.11437H23.7117V11.3569H23.9367C24.3781 10.2884 25.0804 9.43894 26.0462 8.8099C27.0193 8.18087 28.2224 7.86572 29.653 7.86572C30.9761 7.86572 32.1285 8.14766 33.1103 8.71019C34.1007 9.27399 34.8662 10.089 35.4065 11.1574C35.9555 12.226 36.2263 13.5222 36.2176 15.0462V27.1964H31.6995V15.7418C31.6995 14.4664 31.3669 13.4681 30.7016 12.7479C30.0438 12.0278 29.1337 11.6671 27.9677 11.6671C27.1776 11.6671 26.474 11.8407 25.8582 12.189C25.2511 12.5288 24.7726 13.0212 24.4227 13.6675C24.0814 14.3138 23.9107 15.0967 23.9107 16.0151V16.0163Z" fill="white"/>
</g>
<g filter="url(#filter2_d_103_2)">
<path d="M48.9768 27.0085C48.7357 27.0922 48.3895 27.1833 47.9406 27.2818C47.4992 27.3815 46.9589 27.4394 46.3184 27.4566C45.1857 27.4886 44.1668 27.3199 43.2593 26.9469C42.3529 26.5653 41.6333 25.9781 41.1003 25.1829C40.576 24.3877 40.3188 23.3942 40.3263 22.2013V11.5912H37.606V8.11362H40.3263V3.54163H44.8444V8.11362H48.6269V11.5912H44.8444V21.4554C44.8444 22.0598 44.9372 22.5239 45.1201 22.8477C45.3106 23.1615 45.5603 23.377 45.8683 23.4927C46.1762 23.6084 46.5174 23.6675 46.8921 23.6675C47.1753 23.6675 47.4324 23.6465 47.6661 23.6047C47.9073 23.5628 48.0902 23.5259 48.2151 23.4927L48.9768 27.0085Z" fill="white"/>
</g>
<g filter="url(#filter3_d_103_2)">
<path d="M74.8052 1.75256V27.1952H70.2871V1.75256H74.8052Z" fill="white"/>
</g>
<g filter="url(#filter4_d_103_2)">
<path d="M82.2127 1.75256V27.1952H77.6948V1.75256H82.2127Z" fill="white"/>
</g>
<g filter="url(#filter5_d_103_2)">
<path d="M85.1015 27.195V8.11312H89.6194V27.195H85.1015ZM87.3725 5.52796C86.6566 5.52796 86.041 5.29161 85.5256 4.82013C85.0095 4.34003 84.7515 3.76391 84.7515 3.09301C84.7515 2.42211 85.0095 1.83861 85.5256 1.3659C86.041 0.885801 86.6566 0.645752 87.3725 0.645752C88.0883 0.645752 88.7129 0.885801 89.22 1.3659C89.7354 1.83738 89.9942 2.41349 89.9942 3.09301C89.9942 3.77253 89.7354 4.34003 89.22 4.82013C88.7129 5.29161 88.0973 5.52796 87.3725 5.52796Z" fill="white"/>
</g>
<g filter="url(#filter6_d_103_2)">
<path d="M105.391 8.11323V11.2683H105.143C104.918 10.8042 104.589 10.3118 104.156 9.7898C103.723 9.25929 103.141 8.80868 102.409 8.43575C101.685 8.05536 100.761 7.8645 99.6382 7.8645C98.1654 7.8645 96.8302 8.24124 95.6319 8.99463C94.4336 9.74058 93.4799 10.8374 92.7731 12.2863C92.0744 13.7278 91.7244 15.4968 91.7244 17.592C91.7244 19.6872 92.0744 21.402 92.7731 22.7844C93.4799 24.1595 94.4284 25.1948 95.6192 25.8903C96.8175 26.5772 98.1527 26.9219 99.6255 26.9219C100.724 26.9219 101.635 26.7557 102.359 26.4246C103.092 26.0934 103.677 25.6834 104.119 25.1948C104.568 24.7061 104.909 24.2297 105.143 23.7655H105.366V27.381C105.366 28.7894 104.946 29.8 104.107 30.4118C103.266 31.0335 102.205 31.3437 100.924 31.3437C100.017 31.3437 99.2635 31.2193 98.6651 30.9719C98.0741 30.7307 97.6036 30.4254 97.2543 30.0523C96.9043 29.688 96.638 29.3187 96.4555 28.9469L92.3856 29.9281C92.6601 30.8144 93.1515 31.6219 93.8584 32.3507C94.566 33.0794 95.5018 33.6592 96.6664 34.0901C97.8325 34.5283 99.2261 34.7475 100.848 34.7475C102.571 34.7475 104.111 34.4828 105.467 33.9534C106.823 33.4229 107.893 32.6239 108.674 31.5554C109.457 30.4869 109.848 29.1365 109.848 27.5054V8.11323H105.391ZM104.867 20.6979C104.518 21.567 104.007 22.2342 103.333 22.6971C102.659 23.1611 101.843 23.3938 100.886 23.3938C99.9284 23.3938 99.0593 23.1525 98.3771 22.6724C97.7031 22.1837 97.1908 21.5054 96.8422 20.6351C96.5011 19.7574 96.3305 18.7344 96.3305 17.5674C96.3305 16.4004 96.5011 15.3885 96.8422 14.4861C97.1833 13.5752 97.6904 12.8588 98.3644 12.3368C99.0383 11.8149 99.8791 11.5539 100.886 11.5539C101.892 11.5539 102.68 11.8062 103.345 12.3122C104.019 12.8083 104.527 13.5087 104.867 14.4111C105.217 15.3147 105.391 16.3659 105.391 17.5674C105.391 18.7689 105.217 19.8276 104.867 20.6979Z" fill="white"/>
</g>
<g filter="url(#filter7_d_103_2)">
<path d="M121.21 27.5685C119.286 27.5685 117.627 27.1709 116.229 26.3757C114.839 25.5718 113.769 24.438 113.021 22.9719C112.272 21.4971 111.898 19.7626 111.898 17.7671C111.898 15.7717 112.273 14.0815 113.021 12.5994C113.778 11.1086 114.835 9.94896 116.192 9.1205C117.548 8.28341 119.142 7.86609 120.972 7.86609C122.154 7.86609 123.268 8.05688 124.318 8.43726C125.374 8.81027 126.306 9.39008 127.114 10.1767C127.929 10.9633 128.569 11.9653 129.035 13.1828C129.352 14.0039 129.735 16.9694 129.735 17.5061V18.8849H116.38V15.8541H125.404C125.395 14.9925 125.208 14.2267 124.843 13.5558C124.476 12.8763 123.964 12.3421 123.306 11.953C122.658 11.564 121.901 11.3695 121.035 11.3695C120.111 11.3695 119.3 11.5936 118.601 12.0405C117.903 12.4799 117.358 13.0585 116.967 13.7799C116.584 14.4926 116.388 15.2743 116.381 16.1274V18.7741C116.381 19.8845 116.585 20.836 116.993 21.6313C117.401 22.4179 117.971 23.0224 118.703 23.4446C119.435 23.8582 120.292 24.0662 121.274 24.0662C121.931 24.0662 122.526 23.9752 123.058 23.793C123.591 23.6022 124.052 23.3251 124.444 22.9608C124.835 22.5964 125.131 22.1446 125.33 21.6067L129.548 22.0794C129.283 23.1886 128.774 24.1586 128.026 24.9859C127.286 25.8057 126.337 26.4433 125.18 26.8988C124.024 27.3457 122.7 27.5697 121.211 27.5697L121.21 27.5685Z" fill="white"/>
</g>
<g filter="url(#filter8_d_103_2)">
<path d="M136.318 16.0163V27.1976H131.8V8.11437H136.118V11.3569H136.343C136.784 10.2884 137.487 9.43894 138.453 8.8099C139.426 8.18087 140.628 7.86572 142.059 7.86572C143.383 7.86572 144.535 8.14766 145.517 8.71019C146.507 9.27399 147.272 10.089 147.814 11.1574C148.363 12.226 148.634 13.5222 148.625 15.0462V27.1964H144.107V15.7418C144.107 14.4664 143.775 13.4681 143.108 12.7479C142.451 12.0278 141.54 11.6671 140.375 11.6671C139.583 11.6671 138.881 11.8407 138.266 12.189C137.657 12.5288 137.179 13.0212 136.83 13.6675C136.489 14.3138 136.318 15.0967 136.318 16.0151V16.0163Z" fill="white"/>
</g>
<g filter="url(#filter9_d_103_2)">
<path d="M159.821 27.5694C157.907 27.5694 156.264 27.1508 154.89 26.315C153.526 25.4791 152.472 24.3232 151.732 22.8484C151 21.3663 150.634 19.6601 150.634 17.7298C150.634 15.7996 151.009 14.0811 151.758 12.599C152.506 11.1082 153.563 9.94859 154.928 9.12014C156.301 8.28304 157.923 7.86572 159.795 7.86572C161.352 7.86572 162.73 8.15131 163.928 8.72248C165.133 9.28508 166.095 10.0852 166.81 11.1205C167.526 12.1472 167.934 13.3487 168.034 14.7237H163.715C163.541 13.8042 163.124 13.0384 162.467 12.4254C161.818 11.8037 160.948 11.4935 159.858 11.4935C158.934 11.4935 158.124 11.7422 157.423 12.2395C156.725 12.7283 156.179 13.4324 155.789 14.352C155.407 15.2715 155.215 16.3733 155.215 17.656C155.215 18.9387 155.407 20.0749 155.789 21.0105C156.172 21.9387 156.709 22.6539 157.399 23.1598C158.099 23.6572 158.917 23.9047 159.858 23.9047C160.524 23.9047 161.119 23.7803 161.643 23.5316C162.175 23.2756 162.62 22.9063 162.978 22.4262C163.336 21.9461 163.582 21.3614 163.715 20.6745H168.034C167.925 22.0249 167.526 23.2214 166.836 24.2653C166.145 25.3006 165.205 26.1118 164.014 26.7003C162.825 27.2801 161.426 27.5706 159.821 27.5706V27.5694Z" fill="white"/>
</g>
<g filter="url(#filter10_d_103_2)">
<path d="M178.475 27.5685C176.553 27.5685 174.893 27.1709 173.494 26.3757C172.106 25.5718 171.036 24.438 170.287 22.9719C169.539 21.4971 169.164 19.7626 169.164 17.7671C169.164 15.7717 169.539 14.0815 170.287 12.5994C171.045 11.1086 172.1 9.94896 173.457 9.1205C174.813 8.28341 176.407 7.86609 178.238 7.86609C179.42 7.86609 180.535 8.05688 181.584 8.43726C182.64 8.81027 183.572 9.39008 184.379 10.1767C185.194 10.9633 185.834 11.9653 186.301 13.1828C186.767 14.3917 187.001 15.8332 187.001 17.5061V18.8849H173.645V15.8541H182.669C182.661 14.9925 182.474 14.2267 182.108 13.5558C181.741 12.8763 181.23 12.3421 180.572 11.953C179.923 11.564 179.166 11.3695 178.301 11.3695C177.377 11.3695 176.566 11.5936 175.866 12.0405C175.167 12.4799 174.622 13.0585 174.232 13.7799C173.848 14.4926 173.653 15.2743 173.645 16.1274V18.7741C173.645 19.8845 173.848 20.836 174.256 21.6313C174.664 22.4179 175.234 23.0224 175.966 23.4446C176.698 23.8582 177.555 24.0662 178.538 24.0662C179.194 24.0662 179.789 23.9752 180.322 23.793C180.855 23.6022 181.317 23.3251 181.709 22.9608C182.099 22.5964 182.394 22.1446 182.593 21.6067L186.813 22.0794C186.547 23.1886 186.039 24.1586 185.291 24.9859C184.55 25.8057 183.602 26.4433 182.444 26.8988C181.288 27.3457 179.965 27.5697 178.475 27.5697V27.5685Z" fill="white"/>
</g>
<g filter="url(#filter11_d_103_2)">
<path fill-rule="evenodd" clip-rule="evenodd" d="M69.1639 15.9141H65.1079C64.3293 13.4397 62.0083 11.6443 59.2661 11.6443C56.5238 11.6443 54.2028 13.4397 53.4242 15.9141H49.3679C50.2147 11.2371 54.3241 7.68896 59.2659 7.68896C64.2076 7.68896 68.317 11.2371 69.1639 15.9141ZM53.4023 19.4903C53.2352 18.9353 53.1454 18.347 53.1454 17.7378C53.1454 17.1026 53.243 16.49 53.4242 15.9141H65.1079C65.2891 16.49 65.3868 17.1026 65.3868 17.7378C65.3868 18.3469 65.297 18.9351 65.1299 19.49H58.9221L53.4023 19.4903ZM58.9221 23.822C56.3053 23.6776 54.1268 21.8968 53.4023 19.4903H49.3679C50.1951 24.0584 54.1346 27.5496 58.9221 27.7097V23.822Z" fill="white"/>
</g>
</g>
</g>
<defs>
<filter id="filter0_d_103_2" x="-0.748566" y="1.75256" width="18.222" height="26.941" filterUnits="userSpaceOnUse" color-interpolation-filters="sRGB">
<feFlood flood-opacity="0" result="BackgroundImageFix"/>
<feColorMatrix in="SourceAlpha" type="matrix" values="0 0 0 0 0 0 0 0 0 0 0 0 0 0 0 0 0 0 127 0" result="hardAlpha"/>
<feOffset dy="0.748566"/>
<feGaussianBlur stdDeviation="0.374283"/>
<feComposite in2="hardAlpha" operator="out"/>
<feColorMatrix type="matrix" values="0 0 0 0 0 0 0 0 0 0 0 0 0 0 0 0 0 0 0.25 0"/>
<feBlend mode="normal" in2="BackgroundImageFix" result="effect1_dropShadow_103_2"/>
<feBlend mode="normal" in="SourceGraphic" in2="effect1_dropShadow_103_2" result="shape"/>
</filter>
<filter id="filter1_d_103_2" x="18.644" y="7.86572" width="18.3223" height="20.8289" filterUnits="userSpaceOnUse" color-interpolation-filters="sRGB">
<feFlood flood-opacity="0" result="BackgroundImageFix"/>
<feColorMatrix in="SourceAlpha" type="matrix" values="0 0 0 0 0 0 0 0 0 0 0 0 0 0 0 0 0 0 127 0" result="hardAlpha"/>
<feOffset dy="0.748566"/>
<feGaussianBlur stdDeviation="0.374283"/>
<feComposite in2="hardAlpha" operator="out"/>
<feColorMatrix type="matrix" values="0 0 0 0 0 0 0 0 0 0 0 0 0 0 0 0 0 0 0.25 0"/>
<feBlend mode="normal" in2="BackgroundImageFix" result="effect1_dropShadow_103_2"/>
<feBlend mode="normal" in="SourceGraphic" in2="effect1_dropShadow_103_2" result="shape"/>
</filter>
<filter id="filter2_d_103_2" x="36.8574" y="3.54163" width="12.868" height="25.4158" filterUnits="userSpaceOnUse" color-interpolation-filters="sRGB">
<feFlood flood-opacity="0" result="BackgroundImageFix"/>
<feColorMatrix in="SourceAlpha" type="matrix" values="0 0 0 0 0 0 0 0 0 0 0 0 0 0 0 0 0 0 127 0" result="hardAlpha"/>
<feOffset dy="0.748566"/>
<feGaussianBlur stdDeviation="0.374283"/>
<feComposite in2="hardAlpha" operator="out"/>
<feColorMatrix type="matrix" values="0 0 0 0 0 0 0 0 0 0 0 0 0 0 0 0 0 0 0.25 0"/>
<feBlend mode="normal" in2="BackgroundImageFix" result="effect1_dropShadow_103_2"/>
<feBlend mode="normal" in="SourceGraphic" in2="effect1_dropShadow_103_2" result="shape"/>
</filter>
<filter id="filter3_d_103_2" x="69.5385" y="1.75256" width="6.0152" height="26.9398" filterUnits="userSpaceOnUse" color-interpolation-filters="sRGB">
<feFlood flood-opacity="0" result="BackgroundImageFix"/>
<feColorMatrix in="SourceAlpha" type="matrix" values="0 0 0 0 0 0 0 0 0 0 0 0 0 0 0 0 0 0 127 0" result="hardAlpha"/>
<feOffset dy="0.748566"/>
<feGaussianBlur stdDeviation="0.374283"/>
<feComposite in2="hardAlpha" operator="out"/>
<feColorMatrix type="matrix" values="0 0 0 0 0 0 0 0 0 0 0 0 0 0 0 0 0 0 0.25 0"/>
<feBlend mode="normal" in2="BackgroundImageFix" result="effect1_dropShadow_103_2"/>
<feBlend mode="normal" in="SourceGraphic" in2="effect1_dropShadow_103_2" result="shape"/>
</filter>
<filter id="filter4_d_103_2" x="76.9463" y="1.75256" width="6.01495" height="26.9398" filterUnits="userSpaceOnUse" color-interpolation-filters="sRGB">
<feFlood flood-opacity="0" result="BackgroundImageFix"/>
<feColorMatrix in="SourceAlpha" type="matrix" values="0 0 0 0 0 0 0 0 0 0 0 0 0 0 0 0 0 0 127 0" result="hardAlpha"/>
<feOffset dy="0.748566"/>
<feGaussianBlur stdDeviation="0.374283"/>
<feComposite in2="hardAlpha" operator="out"/>
<feColorMatrix type="matrix" values="0 0 0 0 0 0 0 0 0 0 0 0 0 0 0 0 0 0 0.25 0"/>
<feBlend mode="normal" in2="BackgroundImageFix" result="effect1_dropShadow_103_2"/>
<feBlend mode="normal" in="SourceGraphic" in2="effect1_dropShadow_103_2" result="shape"/>
</filter>
<filter id="filter5_d_103_2" x="84.0029" y="0.645752" width="6.73981" height="28.0464" filterUnits="userSpaceOnUse" color-interpolation-filters="sRGB">
<feFlood flood-opacity="0" result="BackgroundImageFix"/>
<feColorMatrix in="SourceAlpha" type="matrix" values="0 0 0 0 0 0 0 0 0 0 0 0 0 0 0 0 0 0 127 0" result="hardAlpha"/>
<feOffset dy="0.748566"/>
<feGaussianBlur stdDeviation="0.374283"/>
<feComposite in2="hardAlpha" operator="out"/>
<feColorMatrix type="matrix" values="0 0 0 0 0 0 0 0 0 0 0 0 0 0 0 0 0 0 0.25 0"/>
<feBlend mode="normal" in2="BackgroundImageFix" result="effect1_dropShadow_103_2"/>
<feBlend mode="normal" in="SourceGraphic" in2="effect1_dropShadow_103_2" result="shape"/>
</filter>
<filter id="filter6_d_103_2" x="90.9758" y="7.8645" width="19.6204" height="28.3801" filterUnits="userSpaceOnUse" color-interpolation-filters="sRGB">
<feFlood flood-opacity="0" result="BackgroundImageFix"/>
<feColorMatrix in="SourceAlpha" type="matrix" values="0 0 0 0 0 0 0 0 0 0 0 0 0 0 0 0 0 0 127 0" result="hardAlpha"/>
<feOffset dy="0.748566"/>
<feGaussianBlur stdDeviation="0.374283"/>
<feComposite in2="hardAlpha" operator="out"/>
<feColorMatrix type="matrix" values="0 0 0 0 0 0 0 0 0 0 0 0 0 0 0 0 0 0 0.25 0"/>
<feBlend mode="normal" in2="BackgroundImageFix" result="effect1_dropShadow_103_2"/>
<feBlend mode="normal" in="SourceGraphic" in2="effect1_dropShadow_103_2" result="shape"/>
</filter>
<filter id="filter7_d_103_2" x="111.15" y="7.86609" width="19.334" height="21.2007" filterUnits="userSpaceOnUse" color-interpolation-filters="sRGB">
<feFlood flood-opacity="0" result="BackgroundImageFix"/>
<feColorMatrix in="SourceAlpha" type="matrix" values="0 0 0 0 0 0 0 0 0 0 0 0 0 0 0 0 0 0 127 0" result="hardAlpha"/>
<feOffset dy="0.748566"/>
<feGaussianBlur stdDeviation="0.374283"/>
<feComposite in2="hardAlpha" operator="out"/>
<feColorMatrix type="matrix" values="0 0 0 0 0 0 0 0 0 0 0 0 0 0 0 0 0 0 0.25 0"/>
<feBlend mode="normal" in2="BackgroundImageFix" result="effect1_dropShadow_103_2"/>
<feBlend mode="normal" in="SourceGraphic" in2="effect1_dropShadow_103_2" result="shape"/>
</filter>
<filter id="filter8_d_103_2" x="131.051" y="7.86572" width="18.3228" height="20.8289" filterUnits="userSpaceOnUse" color-interpolation-filters="sRGB">
<feFlood flood-opacity="0" result="BackgroundImageFix"/>
<feColorMatrix in="SourceAlpha" type="matrix" values="0 0 0 0 0 0 0 0 0 0 0 0 0 0 0 0 0 0 127 0" result="hardAlpha"/>
<feOffset dy="0.748566"/>
<feGaussianBlur stdDeviation="0.374283"/>
<feComposite in2="hardAlpha" operator="out"/>
<feColorMatrix type="matrix" values="0 0 0 0 0 0 0 0 0 0 0 0 0 0 0 0 0 0 0.25 0"/>
<feBlend mode="normal" in2="BackgroundImageFix" result="effect1_dropShadow_103_2"/>
<feBlend mode="normal" in="SourceGraphic" in2="effect1_dropShadow_103_2" result="shape"/>
</filter>
<filter id="filter9_d_103_2" x="149.885" y="7.86572" width="18.897" height="21.202" filterUnits="userSpaceOnUse" color-interpolation-filters="sRGB">
<feFlood flood-opacity="0" result="BackgroundImageFix"/>
<feColorMatrix in="SourceAlpha" type="matrix" values="0 0 0 0 0 0 0 0 0 0 0 0 0 0 0 0 0 0 127 0" result="hardAlpha"/>
<feOffset dy="0.748566"/>
<feGaussianBlur stdDeviation="0.374283"/>
<feComposite in2="hardAlpha" operator="out"/>
<feColorMatrix type="matrix" values="0 0 0 0 0 0 0 0 0 0 0 0 0 0 0 0 0 0 0.25 0"/>
<feBlend mode="normal" in2="BackgroundImageFix" result="effect1_dropShadow_103_2"/>
<feBlend mode="normal" in="SourceGraphic" in2="effect1_dropShadow_103_2" result="shape"/>
</filter>
<filter id="filter10_d_103_2" x="168.415" y="7.86609" width="19.334" height="21.2007" filterUnits="userSpaceOnUse" color-interpolation-filters="sRGB">
<feFlood flood-opacity="0" result="BackgroundImageFix"/>
<feColorMatrix in="SourceAlpha" type="matrix" values="0 0 0 0 0 0 0 0 0 0 0 0 0 0 0 0 0 0 127 0" result="hardAlpha"/>
<feOffset dy="0.748566"/>
<feGaussianBlur stdDeviation="0.374283"/>
<feComposite in2="hardAlpha" operator="out"/>
<feColorMatrix type="matrix" values="0 0 0 0 0 0 0 0 0 0 0 0 0 0 0 0 0 0 0.25 0"/>
<feBlend mode="normal" in2="BackgroundImageFix" result="effect1_dropShadow_103_2"/>
<feBlend mode="normal" in="SourceGraphic" in2="effect1_dropShadow_103_2" result="shape"/>
</filter>
<filter id="filter11_d_103_2" x="48.6194" y="7.68896" width="21.293" height="21.5179" filterUnits="userSpaceOnUse" color-interpolation-filters="sRGB">
<feFlood flood-opacity="0" result="BackgroundImageFix"/>
<feColorMatrix in="SourceAlpha" type="matrix" values="0 0 0 0 0 0 0 0 0 0 0 0 0 0 0 0 0 0 127 0" result="hardAlpha"/>
<feOffset dy="0.748566"/>
<feGaussianBlur stdDeviation="0.374283"/>
<feComposite in2="hardAlpha" operator="out"/>
<feColorMatrix type="matrix" values="0 0 0 0 0 0 0 0 0 0 0 0 0 0 0 0 0 0 0.25 0"/>
<feBlend mode="normal" in2="BackgroundImageFix" result="effect1_dropShadow_103_2"/>
<feBlend mode="normal" in="SourceGraphic" in2="effect1_dropShadow_103_2" result="shape"/>
</filter>
<clipPath id="clip0_103_2">
<rect width="187" height="35" fill="white"/>
</clipPath>
</defs>
</svg>
